<svg width="26" height="21" viewBox="0 0 26 21" fill="none" xmlns="http://www.w3.org/2000/svg">
<path d="M10.2395 0.693377C8.68282 -0.325284 6.97889 0.0572697 6.49626 0.197391C5.93892 0.359086 5.41991 0.627988 4.96945 0.988446C4.51899 1.3489 4.14606 1.79372 3.8724 2.29699C3.69635 2.61495 3.56668 2.95561 3.4872 3.30898C2.61181 3.66945 1.84313 4.24075 1.25223 4.97005C0.661331 5.69935 0.267289 6.56312 0.106537 7.48149C-0.103605 8.66268 0.0699914 9.87882 0.602761 10.9578C0.274211 11.7163 -0.611741 14.1851 0.6798 16.347C1.28737 17.3323 2.20175 18.0996 3.28781 18.5355C3.76842 18.7356 4.2746 18.8703 4.79234 18.9359C5.08729 19.579 5.57705 20.1172 6.1949 20.4772C6.79611 20.8247 7.48216 21.0053 8.1798 20.9999C8.82892 21.0019 9.46884 20.8493 10.0446 20.5551C10.603 20.2655 11.0747 19.8378 11.4129 19.3142C11.7511 18.7907 11.9441 18.1895 11.9729 17.5702V3.85167C11.9689 3.22626 11.8089 2.61132 11.5067 2.06071C11.2045 1.51011 10.7694 1.04062 10.2395 0.693377ZM8.90261 18.6957C8.67566 18.8138 8.42219 18.8742 8.16532 18.8715C7.90846 18.8688 7.65637 18.803 7.43206 18.6801C7.164 18.5161 6.96174 18.2664 6.85938 17.973C6.75702 17.6797 6.76082 17.3607 6.87013 17.0698C6.91337 16.9331 6.92781 16.7893 6.91258 16.647C6.89734 16.5047 6.85276 16.3669 6.78153 16.242C6.7103 16.1172 6.61392 16.0079 6.49827 15.9207C6.38261 15.8336 6.2501 15.7705 6.1088 15.7353C5.82197 15.6468 5.51143 15.6699 5.24149 15.7999C4.97155 15.9299 4.76287 16.1569 4.65865 16.4337C4.62693 16.5249 4.59974 16.6183 4.57708 16.7095C4.46462 16.6764 4.35417 16.637 4.24627 16.5916C3.6059 16.3394 3.06444 15.8929 2.70095 15.3172C2.32789 14.6274 2.20789 13.8327 2.36107 13.0663C2.71727 13.3261 3.10367 13.5434 3.51213 13.7136C3.62327 13.9546 3.76818 14.1792 3.94264 14.3808C4.21953 14.6862 4.55812 14.9317 4.93689 15.1017C5.31567 15.2717 5.72634 15.3625 6.14279 15.3683H6.22436C6.68207 15.3646 7.13439 15.2709 7.55466 15.0929C7.97494 14.9149 8.35466 14.6562 8.67149 14.3319C8.77296 14.2306 8.85184 14.1097 8.9031 13.9768C8.95435 13.844 8.97685 13.7021 8.96918 13.5602C8.96151 13.4184 8.92382 13.2797 8.85852 13.1529C8.79323 13.0261 8.70175 12.9141 8.58992 12.8239C8.35663 12.6333 8.05906 12.5353 7.75584 12.5493C7.45263 12.5633 7.16574 12.6882 6.9517 12.8995C6.85995 13.0061 6.74535 13.0915 6.61609 13.1495C6.48683 13.2076 6.34611 13.2369 6.20397 13.2354C6.1166 13.2357 6.03012 13.2181 5.95011 13.1836C5.87011 13.1491 5.79835 13.0986 5.73947 13.0352C5.52874 12.7972 5.43131 12.2612 5.66696 11.743C5.72385 11.6116 5.75272 11.4701 5.75179 11.3274C5.75086 11.1846 5.72015 11.0436 5.66155 10.9129C5.60296 10.7823 5.51772 10.6648 5.4111 10.5677C5.30447 10.4706 5.17871 10.396 5.04158 10.3484C4.76166 10.2372 4.44909 10.2349 4.16748 10.3419C3.88587 10.4489 3.65638 10.6572 3.52572 10.9245C3.49853 10.9845 3.48041 11.0468 3.45775 11.1069C3.02317 10.6851 2.69862 10.1667 2.51165 9.59558C2.32468 9.02448 2.2808 8.41753 2.38373 7.82623C2.53514 7.00075 2.9829 6.25586 3.64581 5.72663C3.72579 5.95502 3.82117 6.17793 3.93131 6.39388C3.69181 6.57639 3.47908 6.79044 3.29913 7.02999C3.21321 7.14444 3.15248 7.27519 3.12079 7.41392C3.08911 7.55265 3.08715 7.69633 3.11507 7.83584C3.14298 7.97535 3.20015 8.10763 3.28294 8.22429C3.36572 8.34095 3.47232 8.43944 3.59596 8.51349C3.85027 8.67469 4.15699 8.73626 4.45535 8.686C4.75371 8.63575 5.02197 8.47734 5.20699 8.24215C5.33626 8.05475 5.53585 7.92521 5.76213 7.88183C5.82669 7.87116 5.89276 7.87314 5.95653 7.88764C6.02031 7.90215 6.08053 7.9289 6.13373 7.96635C6.28408 8.10616 6.39251 8.28375 6.44724 8.47981C6.50197 8.67588 6.5009 8.88292 6.44415 9.07843C6.41472 9.21914 6.41446 9.36422 6.44339 9.50503C6.47232 9.64584 6.52983 9.77949 6.61251 9.89801C6.69519 10.0165 6.80134 10.1175 6.92463 10.1949C7.04791 10.2723 7.18581 10.3245 7.3301 10.3484C7.41147 10.3642 7.49416 10.3723 7.57708 10.3729C7.8347 10.3781 8.08659 10.298 8.29213 10.1454C8.49768 9.99292 8.64489 9.77687 8.71001 9.53216C8.85974 8.93846 8.82973 8.31478 8.62366 7.73758C8.41759 7.16038 8.04442 6.65475 7.54989 6.28267C7.14952 5.99941 6.68105 5.82314 6.19038 5.77112C6.18165 5.75562 6.1718 5.74075 6.16092 5.72663C6.16092 5.71329 5.30216 4.41883 5.93433 3.28007C6.19767 2.78611 6.64996 2.41494 7.19188 2.24806C7.47386 2.16171 7.77126 2.1349 8.06454 2.1694C8.35782 2.2039 8.64034 2.29893 8.89355 2.44823C9.12411 2.60763 9.31303 2.81823 9.44494 3.06289C9.57685 3.30755 9.64801 3.57935 9.65261 3.85612V17.5369C9.63464 17.7758 9.55676 18.0066 9.4259 18.2087C9.29504 18.4109 9.11528 18.5782 8.90261 18.6957Z" fill="url(#paint0_linear_15_34)"/>
<path d="M25.3913 10.9467C25.921 9.86758 26.0937 8.65286 25.8852 7.47259C25.7232 6.5544 25.3288 5.6909 24.7381 4.96143C24.1473 4.23196 23.3793 3.65991 22.5046 3.29786C22.4241 2.94479 22.2944 2.60426 22.1194 2.28587C21.8458 1.78315 21.4732 1.33884 21.0231 0.978777C20.5731 0.618711 20.0546 0.350074 19.4978 0.188492C19.0129 0.0461459 17.309 -0.334184 15.7523 0.684477C15.2237 1.0299 14.7894 1.49714 14.4872 2.04537C14.185 2.5936 14.0243 3.20613 14.0189 3.82943V17.5769C14.0503 18.1935 14.2446 18.7915 14.5827 19.312C14.9208 19.8326 15.391 20.2579 15.9472 20.5462C16.5234 20.8393 17.163 20.9919 17.812 20.991C18.5098 20.9957 19.1959 20.8143 19.7969 20.4661C20.4147 20.1061 20.9045 19.5679 21.1994 18.9247C21.7174 18.8602 22.2237 18.7255 22.704 18.5244C23.7894 18.0885 24.7035 17.3221 25.312 16.3381C26.6103 14.1628 25.7357 11.7318 25.3913 10.9467ZM23.2818 15.3105C22.9199 15.8889 22.377 16.3368 21.7342 16.5872C21.6268 16.632 21.5171 16.6713 21.4056 16.705C21.383 16.6116 21.3558 16.5204 21.3241 16.4292C21.2203 16.152 21.0118 15.9246 20.7418 15.7941C20.4718 15.6637 20.161 15.6402 19.8739 15.7286C19.7326 15.7639 19.6001 15.827 19.4844 15.9141C19.3688 16.0012 19.2724 16.1105 19.2012 16.2353C19.13 16.3602 19.0854 16.498 19.0701 16.6403C19.0549 16.7826 19.0693 16.9265 19.1126 17.0631C19.2203 17.3535 19.2233 17.6714 19.121 17.9636C19.0187 18.2559 18.8174 18.5049 18.5506 18.669C18.3265 18.7925 18.0744 18.8586 17.8174 18.8613C17.5604 18.864 17.3069 18.8032 17.0801 18.6845C16.8732 18.5694 16.6976 18.407 16.5682 18.2111C16.4389 18.0152 16.3595 17.7915 16.3369 17.5591V3.81831C16.3433 3.54343 16.4153 3.27385 16.5471 3.03126C16.6789 2.78866 16.8669 2.57983 17.096 2.42154C17.3492 2.27223 17.6317 2.17721 17.925 2.14271C18.2183 2.10821 18.5156 2.13502 18.7976 2.22137C19.3387 2.38976 19.7905 2.7605 20.0552 3.25337C20.6874 4.39659 19.8286 5.69994 19.8286 5.69994C19.8186 5.71652 19.8096 5.7336 19.8014 5.7511C19.3107 5.80312 18.8423 5.97939 18.4419 6.26265C17.9454 6.63258 17.5695 7.13654 17.3603 7.71287C17.151 8.2892 17.1174 8.91291 17.2636 9.50769C17.3284 9.7526 17.4755 9.96887 17.6811 10.1215C17.8868 10.2741 18.1389 10.354 18.3966 10.3484C18.4795 10.3479 18.5622 10.3397 18.6435 10.3239C18.787 10.3002 18.9242 10.2484 19.047 10.1717C19.1697 10.095 19.2755 9.99487 19.3582 9.87727C19.4408 9.75968 19.4985 9.62701 19.5279 9.48711C19.5574 9.34722 19.5579 9.20295 19.5295 9.06286C19.4727 8.86735 19.4717 8.66031 19.5264 8.46424C19.5811 8.26818 19.6896 8.09059 19.8399 7.95078C19.948 7.87659 20.0815 7.84704 20.2115 7.86849C20.3234 7.8888 20.43 7.93096 20.525 7.99247C20.6199 8.05398 20.7014 8.13359 20.7644 8.22658C20.9495 8.46229 21.218 8.6212 21.5167 8.67186C21.8155 8.72252 22.1228 8.66124 22.3777 8.50015C22.5011 8.42586 22.6074 8.32726 22.69 8.21059C22.7726 8.09391 22.8296 7.96169 22.8575 7.82228C22.8854 7.68287 22.8836 7.5393 22.8521 7.40063C22.8206 7.26196 22.7601 7.13121 22.6745 7.01664C22.497 6.78191 22.2873 6.57234 22.0514 6.39387C22.1614 6.17787 22.2568 5.95497 22.3369 5.72663C23.002 6.25166 23.453 6.99352 23.608 7.81733C23.7113 8.40879 23.6677 9.01596 23.4812 9.58741C23.2946 10.1589 22.9705 10.6778 22.5363 11.1002C22.5114 11.0379 22.4955 10.9756 22.4683 10.9156C22.3372 10.6487 22.1077 10.4407 21.8263 10.3338C21.5448 10.2268 21.2324 10.2289 20.9525 10.3395C20.8146 10.386 20.6879 10.4597 20.5803 10.5561C20.4726 10.6526 20.3863 10.7697 20.3266 10.9002C20.2669 11.0307 20.2351 11.1719 20.2333 11.3149C20.2314 11.458 20.2595 11.5999 20.3158 11.7318C20.5423 12.2523 20.454 12.7861 20.241 13.0241C20.1837 13.0865 20.1139 13.1365 20.0359 13.171C19.9578 13.2054 19.8734 13.2236 19.7878 13.2242C19.6459 13.2246 19.5055 13.1947 19.3765 13.1367C19.2474 13.0787 19.1326 12.994 19.0401 12.8884C18.8257 12.6774 18.5387 12.5529 18.2355 12.5393C17.9323 12.5257 17.6349 12.6241 17.4019 12.815C17.2901 12.905 17.1986 13.0168 17.1334 13.1434C17.0681 13.27 17.0304 13.4085 17.0227 13.5502C17.0151 13.6919 17.0376 13.8336 17.0888 13.9663C17.14 14.0989 17.2189 14.2197 17.3203 14.3208C17.6352 14.6448 18.0128 14.9038 18.4311 15.0826C18.8494 15.2613 19.2999 15.3562 19.7561 15.3617H19.8377C20.254 15.3563 20.6646 15.2659 21.0434 15.0963C21.4221 14.9266 21.7608 14.6815 22.0378 14.3764C22.2121 14.1746 22.357 13.95 22.4683 13.7091C22.8763 13.5388 23.2626 13.3223 23.6194 13.0641C23.7727 13.8287 23.6535 14.6219 23.2818 15.3105Z" fill="url(#paint1_linear_15_34)"/>
<defs>
<linearGradient id="paint0_linear_15_34" x1="11.8958" y1="-1.22328" x2="14.2981" y2="24.4741" gradientUnits="userSpaceOnUse">
<stop stop-color="#ED421D"/>
<stop offset="1" stop-color="#FB795D"/>
</linearGradient>
<linearGradient id="paint1_linear_15_34" x1="11.8958" y1="-1.22328" x2="14.2981" y2="24.4741" gradientUnits="userSpaceOnUse">
<stop stop-color="#ED421D"/>
<stop offset="1" stop-color="#FB795D"/>
</linearGradient>
</defs>
</svg>
