<svg width="151" height="42" viewBox="0 0 151 42" fill="none" xmlns="http://www.w3.org/2000/svg">
<path d="M5.69817 41.999H1.93942C1.43874 42.0121 0.95329 41.8261 0.589668 41.4816C0.226046 41.1372 0.013969 40.6625 0 40.1619V8.4772C0 2.85465 1.71701 0.0478249 6.67233 0.0478249H11.1205C13.1964 0.0478249 14.8437 0.55937 16.0625 1.58246C16.424 1.88192 16.8787 2.04579 17.348 2.04579C17.8174 2.04579 18.2721 1.88192 18.6336 1.58246C19.8346 0.55937 21.4938 0.0478249 23.6111 0.0478249H28.0594C33.0236 0.0478249 34.2157 2.85465 34.2157 8.49944V40.1619C34.2017 40.6617 33.9903 41.1357 33.6276 41.48C33.2649 41.8243 32.7806 42.0109 32.2807 41.999H29.0291C28.5287 42.0109 28.0439 41.8245 27.6806 41.4803C27.3172 41.1361 27.1048 40.6621 27.0896 40.1619V7.68986C27.0926 7.36301 26.9755 7.04645 26.7605 6.80022C26.6629 6.67975 26.5395 6.5828 26.3993 6.51657C26.2592 6.45034 26.1059 6.41654 25.9509 6.41767H22.7082C22.5531 6.41654 22.3999 6.45034 22.2597 6.51657C22.1196 6.5828 21.9961 6.67975 21.8986 6.80022C21.6836 7.04645 21.5665 7.36301 21.5694 7.68986L20.8132 39.1076C20.8132 40.6912 20.2127 41.9812 18.5402 41.9812H16.1915C14.519 41.9812 13.8162 40.6956 13.8162 39.1121L13.1623 7.70766C13.1652 7.3808 13.0481 7.06424 12.8331 6.81801C12.7344 6.69519 12.609 6.5965 12.4664 6.52944C12.3238 6.46238 12.1677 6.42872 12.0102 6.43102H8.78078C8.62577 6.42989 8.4725 6.46369 8.33234 6.52991C8.19219 6.59614 8.06875 6.69309 7.97121 6.81356C7.75462 7.05914 7.63588 7.37577 7.63759 7.70321V40.1752C7.62017 40.6735 7.40658 41.1448 7.04334 41.4864C6.68009 41.8279 6.19661 42.0122 5.69817 41.999Z" fill="#EEEEEE"/>
<path d="M66.7233 41.999H62.9423C62.4416 42.0121 61.9562 41.8261 61.5925 41.4816C61.2289 41.1372 61.0168 40.6625 61.0029 40.1619V8.4772C61.0029 2.85465 62.7199 0.0478249 67.6752 0.0478249H72.1234C74.1992 0.0478249 75.8466 0.55937 77.0654 1.58246C77.4268 1.88192 77.8815 2.0458 78.3509 2.0458C78.8203 2.0458 79.275 1.88192 79.6365 1.58246C80.8226 0.568266 82.4818 0.0611696 84.614 0.0611696H89.0622C94.0264 0.0611696 95.2186 2.86799 95.2186 8.51278V40.1619C95.2046 40.6617 94.9931 41.1357 94.6305 41.48C94.2678 41.8243 93.7835 42.0109 93.2836 41.999H90.0319C89.7827 42.0073 89.5343 41.9663 89.3009 41.8784C89.0675 41.7905 88.8538 41.6574 88.6719 41.4867C88.4901 41.3161 88.3438 41.1112 88.2413 40.8838C88.1388 40.6565 88.0822 40.4111 88.0747 40.1619V7.68986C88.0777 7.36301 87.9605 7.04645 87.7455 6.80022C87.648 6.67975 87.5246 6.5828 87.3844 6.51657C87.2443 6.45034 87.091 6.41654 86.936 6.41767H83.6932C83.5382 6.41654 83.3849 6.45034 83.2448 6.51657C83.1046 6.5828 82.9812 6.67975 82.8837 6.80022C82.6687 7.04645 82.5515 7.36301 82.5545 7.68986L81.7983 39.1076C81.7983 40.6912 81.1978 41.9812 79.5252 41.9812H77.1766C75.5041 41.9812 74.8057 40.6956 74.8057 39.1121L74.1473 7.68986C74.1503 7.36301 74.0331 7.04645 73.8182 6.80022C73.7204 6.67999 73.5969 6.58321 73.4568 6.51701C73.3167 6.45081 73.1636 6.41686 73.0086 6.41767H69.7659C69.6108 6.41654 69.4576 6.45034 69.3174 6.51657C69.1773 6.5828 69.0538 6.67975 68.9563 6.80022C68.7397 7.04579 68.621 7.36243 68.6227 7.68986V40.1619C68.6087 40.6555 68.4022 41.1241 68.0472 41.4674C67.6923 41.8107 67.2171 42.0015 66.7233 41.999Z" fill="#EEEEEE"/>
<path d="M49.2195 35.8382H54.4239C54.8142 35.8305 55.2021 35.8998 55.5655 36.0421C55.929 36.1844 56.2608 36.3969 56.5421 36.6674C56.8234 36.938 57.0487 37.2613 57.205 37.619C57.3613 37.9766 57.4457 38.3615 57.4532 38.7518V39.0854C57.4457 39.4756 57.3613 39.8605 57.205 40.2182C57.0487 40.5758 56.8234 40.8992 56.5421 41.1697C56.2608 41.4403 55.929 41.6528 55.5655 41.7951C55.2021 41.9373 54.8142 42.0066 54.4239 41.999H42.7741C42.3838 42.0066 41.9959 41.9373 41.6325 41.7951C41.269 41.6528 40.9372 41.4403 40.6558 41.1697C40.3745 40.8992 40.1493 40.5758 39.993 40.2182C39.8367 39.8605 39.7523 39.4756 39.7448 39.0854V2.95695C39.7612 2.16961 40.0894 1.42097 40.6574 0.875492C41.2254 0.330014 41.9867 0.0323217 42.7741 0.0478172H54.4239C55.2113 0.0323217 55.9726 0.330014 56.5406 0.875492C57.1086 1.42097 57.4368 2.16961 57.4532 2.95695V3.44626C57.4368 4.23399 57.1087 4.98308 56.5409 5.52926C55.973 6.07545 55.2117 6.37414 54.4239 6.35984H49.2195C48.8293 6.35217 48.4414 6.42146 48.0779 6.56374C47.7145 6.70603 47.3826 6.91852 47.1013 7.18909C46.82 7.45965 46.5948 7.78299 46.4384 8.14062C46.2821 8.49826 46.1978 8.88319 46.1903 9.27342V14.8737C46.2066 15.6611 46.5349 16.4097 47.1029 16.9552C47.6709 17.5007 48.4322 17.7984 49.2195 17.7829H53.8234C54.2137 17.7752 54.6016 17.8445 54.965 17.9868C55.3285 18.129 55.6603 18.3415 55.9416 18.6121C56.2229 18.8827 56.4482 19.206 56.6045 19.5636C56.7608 19.9213 56.8451 20.3062 56.8527 20.6964V21.5149C56.8451 21.9051 56.7608 22.2901 56.6045 22.6477C56.4482 23.0054 56.2229 23.3287 55.9416 23.5993C55.6603 23.8698 55.3285 24.0823 54.965 24.2246C54.6016 24.3669 54.2137 24.4362 53.8234 24.4285H49.2195C48.8293 24.4208 48.4414 24.4901 48.0779 24.6324C47.7145 24.7747 47.3826 24.9872 47.1013 25.2577C46.82 25.5283 46.5948 25.8516 46.4384 26.2093C46.2821 26.5669 46.1978 26.9518 46.1903 27.3421V32.9246C46.1978 33.3148 46.2821 33.6998 46.4384 34.0574C46.5948 34.415 46.82 34.7384 47.1013 35.0089C47.3826 35.2795 47.7145 35.492 48.0779 35.6343C48.4414 35.7766 48.8293 35.8458 49.2195 35.8382Z" fill="#EEEEEE"/>
<path d="M120.085 1.38675C117.032 -0.650569 113.689 0.114539 112.743 0.394783C111.649 0.718171 110.631 1.25598 109.748 1.97689C108.864 2.69781 108.133 3.58743 107.596 4.59398C107.251 5.22989 106.996 5.91121 106.84 6.61796C105.123 7.3389 103.615 8.48149 102.456 9.9401C101.297 11.3987 100.524 13.1262 100.209 14.963C99.7968 17.3254 100.137 19.7577 101.182 21.9157C100.538 23.4325 98.8 28.3702 101.333 32.6939C102.525 34.6645 104.319 36.1992 106.449 37.071C107.392 37.4711 108.385 37.7405 109.4 37.8717C109.979 39.158 110.94 40.2344 112.152 40.9544C113.331 41.6493 114.677 42.0106 116.045 41.9998C117.318 42.0038 118.573 41.6986 119.703 41.1101C120.798 40.531 121.723 39.6755 122.387 38.6285C123.05 37.5814 123.429 36.379 123.485 35.1405V7.70334C123.478 6.45252 123.164 5.22264 122.571 4.12143C121.978 3.02021 121.125 2.08124 120.085 1.38675ZM117.463 37.3913C117.018 37.6276 116.52 37.7485 116.017 37.743C115.513 37.7376 115.018 37.606 114.578 37.3602C114.052 37.0322 113.656 36.5327 113.455 35.9461C113.254 35.3594 113.262 34.7214 113.476 34.1396C113.561 33.8663 113.589 33.5786 113.559 33.2939C113.529 33.0093 113.442 32.7337 113.302 32.484C113.163 32.2343 112.973 32.0157 112.747 31.8415C112.52 31.6673 112.26 31.5411 111.983 31.4706C111.42 31.2936 110.811 31.3399 110.281 31.5999C109.752 31.8599 109.343 32.3137 109.138 32.8674C109.076 33.0498 109.023 33.2366 108.978 33.419C108.758 33.3528 108.541 33.2741 108.329 33.1832C107.073 32.6788 106.011 31.7857 105.298 30.6343C104.566 29.2548 104.331 27.6653 104.631 26.1327C105.33 26.6522 106.088 27.0867 106.889 27.4271C107.107 27.9091 107.391 28.3583 107.734 28.7616C108.277 29.3724 108.941 29.8634 109.684 30.2035C110.427 30.5435 111.232 30.7251 112.049 30.7367H112.209C113.107 30.7291 113.994 30.5418 114.819 30.1858C115.643 29.8298 116.388 29.3123 117.009 28.6638C117.209 28.4612 117.363 28.2193 117.464 27.9536C117.564 27.6879 117.608 27.4042 117.593 27.1205C117.578 26.8368 117.504 26.5593 117.376 26.3058C117.248 26.0522 117.069 25.8281 116.849 25.6478C116.392 25.2665 115.808 25.0706 115.213 25.0986C114.619 25.1266 114.056 25.3765 113.636 25.799C113.456 26.0122 113.231 26.1829 112.978 26.299C112.724 26.4151 112.448 26.4738 112.169 26.4707C111.998 26.4714 111.828 26.4361 111.671 26.3672C111.514 26.2982 111.374 26.1971 111.258 26.0704C110.845 25.5944 110.654 24.5224 111.116 23.4859C111.228 23.2232 111.284 22.9403 111.282 22.6548C111.281 22.3693 111.22 22.0872 111.105 21.8258C110.99 21.5645 110.823 21.3295 110.614 21.1354C110.405 20.9412 110.158 20.7919 109.889 20.6968C109.34 20.4744 108.727 20.4698 108.175 20.6838C107.622 20.8978 107.172 21.3145 106.916 21.8489C106.862 21.9691 106.827 22.0936 106.783 22.2137C105.93 21.3702 105.293 20.3334 104.927 19.1912C104.56 18.049 104.474 16.8351 104.676 15.6525C104.973 14.0015 105.851 12.5117 107.151 11.4533C107.308 11.91 107.495 12.3559 107.711 12.7878C107.242 13.1528 106.824 13.5809 106.471 14.06C106.303 14.2889 106.184 14.5504 106.122 14.8278C106.059 15.1053 106.056 15.3927 106.11 15.6717C106.165 15.9507 106.277 16.2153 106.44 16.4486C106.602 16.6819 106.811 16.8789 107.054 17.027C107.552 17.3494 108.154 17.4725 108.739 17.372C109.325 17.2715 109.851 16.9547 110.214 16.4843C110.467 16.1095 110.859 15.8504 111.303 15.7637C111.429 15.7423 111.559 15.7463 111.684 15.7753C111.809 15.8043 111.927 15.8578 112.032 15.9327C112.326 16.2123 112.539 16.5675 112.647 16.9596C112.754 17.3518 112.752 17.7658 112.64 18.1569C112.583 18.4383 112.582 18.7284 112.639 19.0101C112.696 19.2917 112.809 19.559 112.971 19.796C113.133 20.0331 113.341 20.235 113.583 20.3897C113.825 20.5445 114.095 20.649 114.378 20.6968C114.538 20.7283 114.7 20.7447 114.863 20.7458C115.368 20.7562 115.862 20.596 116.265 20.2909C116.669 19.9858 116.957 19.5537 117.085 19.0643C117.379 17.8769 117.32 16.6296 116.916 15.4752C116.511 14.3208 115.779 13.3095 114.809 12.5653C114.024 11.9988 113.105 11.6463 112.143 11.5422C112.126 11.5112 112.106 11.4815 112.085 11.4533C112.085 11.4266 110.4 8.83766 111.64 6.56013C112.157 5.57222 113.044 4.82987 114.107 4.49612C114.66 4.32342 115.244 4.26981 115.819 4.33881C116.394 4.4078 116.948 4.59785 117.445 4.89647C117.897 5.21525 118.268 5.63647 118.527 6.12579C118.785 6.61511 118.925 7.15869 118.934 7.71224V35.0738C118.899 35.5515 118.746 36.0131 118.489 36.4175C118.233 36.8218 117.88 37.1564 117.463 37.3913Z" fill="#EEEEEE"/>
<path d="M149.806 21.8934C150.845 19.7352 151.184 17.3057 150.775 14.9452C150.457 13.1088 149.683 11.3818 148.525 9.92286C147.366 8.46392 145.859 7.31983 144.144 6.59571C143.986 5.88957 143.731 5.20853 143.388 4.57173C142.851 3.56631 142.12 2.67769 141.238 1.95755C140.355 1.23742 139.338 0.700149 138.246 0.376983C137.294 0.0922919 133.952 -0.668368 130.899 1.36895C129.862 2.05979 129.01 2.99428 128.417 4.09074C127.824 5.1872 127.509 6.41226 127.499 7.65886V35.1538C127.56 36.387 127.941 37.5829 128.605 38.6241C129.268 39.6652 130.19 40.5158 131.281 41.0923C132.411 41.6786 133.666 41.9838 134.939 41.982C136.308 41.9915 137.653 41.6286 138.832 40.9322C140.044 40.2122 141.005 39.1357 141.584 37.8495C142.599 37.7204 143.593 37.4509 144.535 37.0488C146.664 36.177 148.457 34.6443 149.65 32.6761C152.197 28.3257 150.482 23.4637 149.806 21.8934ZM145.668 30.621C144.958 31.7779 143.893 32.6737 142.632 33.1743C142.422 33.2639 142.207 33.3426 141.988 33.4101C141.944 33.2233 141.89 33.0409 141.828 32.8585C141.624 32.304 141.215 31.8491 140.686 31.5883C140.156 31.3274 139.547 31.2805 138.983 31.4573C138.706 31.5277 138.446 31.6539 138.219 31.8281C137.993 32.0024 137.804 32.221 137.664 32.4707C137.524 32.7204 137.437 32.996 137.407 33.2806C137.377 33.5652 137.405 33.8529 137.49 34.1263C137.701 34.707 137.707 35.3427 137.507 35.9272C137.306 36.5117 136.911 37.0097 136.388 37.3379C135.948 37.5849 135.454 37.7172 134.95 37.7226C134.445 37.7281 133.948 37.6065 133.503 37.3691C133.097 37.1388 132.753 36.814 132.499 36.4222C132.245 36.0303 132.09 35.5831 132.045 35.1182V7.63661C132.058 7.08685 132.199 6.5477 132.458 6.06251C132.716 5.57733 133.085 5.15965 133.534 4.84308C134.031 4.54447 134.585 4.35442 135.161 4.28542C135.736 4.21642 136.319 4.27003 136.872 4.44273C137.934 4.77952 138.82 5.521 139.339 6.50675C140.579 8.79317 138.895 11.3999 138.895 11.3999C138.875 11.433 138.857 11.4672 138.841 11.5022C137.879 11.6062 136.96 11.9588 136.174 12.5253C135.201 13.2652 134.463 14.2731 134.053 15.4257C133.642 16.5784 133.576 17.8258 133.863 19.0154C133.99 19.5052 134.279 19.9377 134.682 20.2429C135.086 20.5481 135.58 20.7081 136.086 20.6968C136.248 20.6957 136.41 20.6794 136.57 20.6479C136.852 20.6004 137.121 20.4969 137.361 20.3434C137.602 20.19 137.81 19.9897 137.972 19.7545C138.134 19.5194 138.247 19.254 138.305 18.9742C138.363 18.6944 138.364 18.4059 138.308 18.1257C138.197 17.7347 138.194 17.3206 138.302 16.9285C138.409 16.5364 138.622 16.1812 138.917 15.9016C139.129 15.7532 139.391 15.6941 139.646 15.737C139.865 15.7776 140.074 15.8619 140.261 15.9849C140.447 16.108 140.607 16.2672 140.73 16.4532C141.093 16.9246 141.62 17.2424 142.206 17.3437C142.792 17.445 143.395 17.3225 143.895 17.0003C144.137 16.8517 144.345 16.6545 144.507 16.4212C144.669 16.1878 144.781 15.9234 144.836 15.6446C144.891 15.3657 144.887 15.0786 144.825 14.8013C144.763 14.5239 144.645 14.2624 144.477 14.0333C144.129 13.5638 143.717 13.1447 143.255 12.7877C143.47 12.3557 143.658 11.9099 143.815 11.4533C145.119 12.5033 146.004 13.987 146.308 15.6347C146.511 16.8176 146.425 18.0319 146.059 19.1748C145.693 20.3177 145.058 21.3555 144.206 22.2004C144.157 22.0758 144.126 21.9513 144.072 21.8312C143.815 21.2974 143.365 20.8815 142.813 20.6675C142.261 20.4536 141.648 20.4577 141.099 20.679C140.829 20.7719 140.58 20.9194 140.369 21.1122C140.158 21.3051 139.988 21.5393 139.871 21.8004C139.754 22.0614 139.692 22.3437 139.688 22.6298C139.685 22.9159 139.74 23.1997 139.85 23.4637C140.295 24.5046 140.121 25.5722 139.703 26.0481C139.591 26.173 139.454 26.273 139.301 26.342C139.148 26.4109 138.982 26.4472 138.815 26.4485C138.536 26.4491 138.261 26.3894 138.008 26.2734C137.754 26.1575 137.529 25.9881 137.348 25.7768C136.927 25.3549 136.364 25.1058 135.77 25.0786C135.175 25.0514 134.591 25.2482 134.134 25.63C133.915 25.8099 133.736 26.0336 133.608 26.2868C133.48 26.54 133.406 26.8171 133.391 27.1004C133.376 27.3838 133.42 27.6672 133.52 27.9325C133.621 28.1979 133.775 28.4393 133.974 28.6415C134.592 29.2896 135.333 29.8076 136.153 30.1651C136.974 30.5226 137.858 30.7124 138.752 30.7233H138.912C139.729 30.7125 140.534 30.5318 141.277 30.1925C142.02 29.8532 142.685 29.3629 143.228 28.7527C143.57 28.3492 143.854 27.9 144.072 27.4182C144.873 27.0776 145.63 26.6447 146.33 26.1282C146.631 27.6575 146.397 29.2438 145.668 30.621Z" fill="#EEEEEE"/>
</svg>
