<svg width="32" height="31" viewBox="0 0 32 31" fill="none" xmlns="http://www.w3.org/2000/svg">
<path d="M16 30.38C11.7333 30.38 8.10667 28.9333 5.12 26.04C2.13333 23.1467 0.64 19.6333 0.64 15.5C0.64 11.3667 2.13333 7.85333 5.12 4.96C8.10667 2.06667 11.7333 0.62 16 0.62C16.2276 0.62 16.4693 0.626889 16.7253 0.640667C16.9813 0.654445 17.3084 0.675111 17.7067 0.702667C16.6827 1.58444 15.8862 2.67289 15.3173 3.968C14.7484 5.26311 14.464 6.62711 14.464 8.06C14.464 10.54 15.36 12.648 17.152 14.384C18.944 16.12 21.12 16.988 23.68 16.988C25.1591 16.988 26.5671 16.7331 27.904 16.2233C29.2409 15.7136 30.3644 15.004 31.2747 14.0947C31.3031 14.4253 31.3244 14.694 31.3387 14.9007C31.3529 15.1073 31.36 15.3071 31.36 15.5C31.36 19.6333 29.8667 23.1467 26.88 26.04C23.8933 28.9333 20.2667 30.38 16 30.38ZM16 27.9C19.1004 27.9 21.8027 26.97 24.1067 25.11C26.4107 23.25 27.8471 21.0662 28.416 18.5587C27.7049 18.8618 26.944 19.0891 26.1333 19.2407C25.3227 19.3922 24.5049 19.468 23.68 19.468C20.4089 19.468 17.6284 18.3589 15.3387 16.1407C13.0489 13.9224 11.904 11.2289 11.904 8.06C11.904 7.39867 11.9751 6.68911 12.1173 5.93133C12.2596 5.17356 12.5156 4.31244 12.8853 3.348C10.0978 4.092 7.78667 5.60067 5.952 7.874C4.11733 10.1473 3.2 12.6893 3.2 15.5C3.2 18.9444 4.44444 21.8722 6.93333 24.2833C9.42222 26.6944 12.4444 27.9 16 27.9Z" fill="#0F1E2C"/>
<path fill-rule="evenodd" clip-rule="evenodd" d="M16 1.24C11.9011 1.24 8.43783 2.62267 5.57255 5.39841C2.70727 8.17415 1.28 11.5292 1.28 15.5C1.28 19.4708 2.70727 22.8259 5.57255 25.6016C8.43783 28.3773 11.9011 29.76 16 29.76C20.0989 29.76 23.5622 28.3773 26.4275 25.6016C29.2927 22.8259 30.72 19.4708 30.72 15.5C30.72 15.4677 30.7198 15.4351 30.7193 15.4023C29.9585 15.9693 29.0969 16.4348 28.1384 16.8003C26.7247 17.3393 25.2369 17.608 23.68 17.608C20.9522 17.608 18.6128 16.676 16.6995 14.8224C14.7861 12.9688 13.824 10.7026 13.824 8.06C13.824 6.54523 14.1252 5.09852 14.7284 3.72524C15.1336 2.80284 15.6499 1.97456 16.278 1.24345C16.1826 1.24114 16.0899 1.24 16 1.24ZM4.66745 4.52159C7.7755 1.51067 11.5655 0 16 0C16.2408 0 16.4945 0.00728543 16.7608 0.0216213C17.0215 0.0356507 17.3523 0.0565663 17.7523 0.0842422C18.009 0.102008 18.2298 0.267044 18.3126 0.503129C18.3955 0.739213 18.3242 1.0004 18.1319 1.16606C17.1828 1.98327 16.4404 2.99481 15.9062 4.21076C15.3717 5.4277 15.104 6.70899 15.104 8.06C15.104 10.3774 15.9339 12.3272 17.6045 13.9456C19.2752 15.564 21.2878 16.368 23.68 16.368C25.0813 16.368 26.4096 16.1269 27.6696 15.6464C28.9301 15.1658 29.9745 14.5029 30.8152 13.6631C30.9899 13.4885 31.2538 13.429 31.4902 13.5109C31.7265 13.5927 31.8916 13.8009 31.9125 14.0432C31.941 14.3755 31.9627 14.6479 31.9773 14.8594C31.9923 15.0788 32 15.2924 32 15.5C32 19.7959 30.4406 23.4675 27.3325 26.4784C24.2245 29.4893 20.4345 31 16 31C11.5655 31 7.7755 29.4893 4.66745 26.4784C1.5594 23.4675 0 19.7959 0 15.5C0 11.2041 1.5594 7.53252 4.66745 4.52159ZM13.3571 2.92903C13.5194 3.10057 13.5689 3.34572 13.4853 3.56388C13.1245 4.5048 12.8807 5.32983 12.747 6.04224C12.6106 6.76924 12.544 7.44134 12.544 8.06C12.544 11.0663 13.6228 13.6016 15.7912 15.7023C17.9596 17.8029 20.5767 18.848 23.68 18.848C24.4642 18.848 25.2413 18.776 26.0121 18.6319C26.7787 18.4886 27.4935 18.2745 28.1582 17.9912C28.3788 17.8972 28.6352 17.9311 28.8216 18.079C29.008 18.227 29.0928 18.4638 29.0411 18.6918C28.4377 21.3512 26.9144 23.6504 24.5164 25.5863C22.0932 27.5425 19.2447 28.52 16 28.52C12.2766 28.52 9.09106 27.2504 6.48079 24.7217C3.87051 22.193 2.56 19.107 2.56 15.5C2.56 12.547 3.52768 9.87135 5.4478 7.49213C7.36433 5.11736 9.79113 3.53074 12.7153 2.75027C12.9469 2.68846 13.1948 2.75749 13.3571 2.92903ZM11.8693 4.32178C9.7423 5.1089 7.94054 6.41662 6.4562 8.25587C4.70699 10.4233 3.84 12.8317 3.84 15.5C3.84 18.7819 5.01838 21.5514 7.38588 23.8449C9.75339 26.1384 12.6122 27.28 16 27.28C18.9562 27.28 21.5121 26.3975 23.6969 24.6337C25.5449 23.1419 26.7912 21.4514 27.4624 19.5603C27.0711 19.6757 26.6685 19.7721 26.2546 19.8494C25.404 20.0085 24.5456 20.088 23.68 20.088C20.2411 20.088 17.2973 18.9149 14.8861 16.5791C12.475 14.2433 11.264 11.3914 11.264 8.06C11.264 7.356 11.3397 6.60898 11.4877 5.82042C11.5755 5.35258 11.7031 4.85281 11.8693 4.32178Z" fill="#0F1E2C"/>
</svg>
