<svg width="39" height="39" viewBox="0 0 39 39" fill="none" xmlns="http://www.w3.org/2000/svg">
<path d="M5.11111 38C3.98056 38 3.01239 37.5978 2.20661 36.7934C1.4022 35.9876 1 35.0194 1 33.8889V5.11111C1 3.98056 1.4022 3.01239 2.20661 2.20661C3.01239 1.4022 3.98056 1 5.11111 1H17V5.11111H5.11111V33.8889H33.8889V22H38V33.8889C38 35.0194 37.5978 35.9876 36.7934 36.7934C35.9876 37.5978 35.0194 38 33.8889 38H5.11111ZM14.7722 27.1056L11.8944 24.2278L31.0111 5.11111H23.6111V1H38V15.3889H33.8889V7.98889L14.7722 27.1056Z" fill="#F44823" stroke="#F44823" stroke-width="1.8"/>
</svg>
