<svg width="26" height="23" viewBox="0 0 26 23" fill="none" xmlns="http://www.w3.org/2000/svg">
<path d="M7.43691 3.35976C8.11185 2.79729 8.19242 1.80234 7.611 1.14289C7.03543 0.490058 6.03119 0.416628 5.36283 0.973614L1.16296 4.47361C0.823865 4.7562 0.618576 5.16617 0.601197 5.60612C0.583815 6.04613 0.756216 6.47079 1.07262 6.77842L5.2725 10.8618C5.89636 11.4683 6.90333 11.4683 7.52721 10.8618C8.15741 10.2491 8.15742 9.25096 7.52725 8.63827L6.08222 7.23335H15.9963C19.277 7.23335 22.0686 9.85741 22.1954 13.0198C22.3294 16.3584 19.4655 19.2667 15.9963 19.2667H5.79903C4.92607 19.2667 4.19903 19.9575 4.19903 20.8333C4.19903 21.7091 4.92607 22.4 5.79903 22.4H15.9963C21.2549 22.4 25.5992 18.0395 25.393 12.8968C25.1979 8.03309 20.9751 4.10002 15.9963 4.10002H6.54863L7.43691 3.35976Z" fill="#EEEEEE" stroke="#EEEEEE" stroke-width="0.8" stroke-linecap="round" stroke-linejoin="round"/>
</svg>
