<svg width="37" height="37" viewBox="0 0 37 37" fill="none" xmlns="http://www.w3.org/2000/svg">
<path d="M18.5 24.1923C20.0722 24.1923 21.4139 23.6366 22.5253 22.5253C23.6366 21.4139 24.1923 20.0722 24.1923 18.5C24.1923 16.9278 23.6366 15.5861 22.5253 14.4747C21.4139 13.3634 20.0722 12.8077 18.5 12.8077C16.9278 12.8077 15.5861 13.3634 14.4747 14.4747C13.3634 15.5861 12.8077 16.9278 12.8077 18.5C12.8077 20.0722 13.3634 21.4139 14.4747 22.5253C15.5861 23.6366 16.9278 24.1923 18.5 24.1923ZM18.5 26.6319C16.2502 26.6319 14.3324 25.839 12.7467 24.2533C11.161 22.6676 10.3681 20.7498 10.3681 18.5C10.3681 16.2502 11.161 14.3324 12.7467 12.7467C14.3324 11.161 16.2502 10.3681 18.5 10.3681C20.7498 10.3681 22.6676 11.161 24.2533 12.7467C25.839 14.3324 26.6319 16.2502 26.6319 18.5C26.6319 20.7498 25.839 22.6676 24.2533 24.2533C22.6676 25.839 20.7498 26.6319 18.5 26.6319ZM1.82967 19.7198C1.47729 19.7198 1.1859 19.6046 0.955494 19.3742C0.725092 19.1438 0.60989 18.8524 0.60989 18.5C0.60989 18.1476 0.725092 17.8562 0.955494 17.6258C1.1859 17.3954 1.47729 17.2802 1.82967 17.2802H5.8956C6.24799 17.2802 6.53938 17.3954 6.76978 17.6258C7.00018 17.8562 7.11538 18.1476 7.11538 18.5C7.11538 18.8524 7.00018 19.1438 6.76978 19.3742C6.53938 19.6046 6.24799 19.7198 5.8956 19.7198H1.82967ZM31.1044 19.7198C30.752 19.7198 30.4606 19.6046 30.2302 19.3742C29.9998 19.1438 29.8846 18.8524 29.8846 18.5C29.8846 18.1476 29.9998 17.8562 30.2302 17.6258C30.4606 17.3954 30.752 17.2802 31.1044 17.2802H35.1703C35.5227 17.2802 35.8141 17.3954 36.0445 17.6258C36.2749 17.8562 36.3901 18.1476 36.3901 18.5C36.3901 18.8524 36.2749 19.1438 36.0445 19.3742C35.8141 19.6046 35.5227 19.7198 35.1703 19.7198H31.1044ZM18.5 7.11538C18.1476 7.11538 17.8562 7.00018 17.6258 6.76978C17.3954 6.53938 17.2802 6.24799 17.2802 5.8956V1.82967C17.2802 1.47729 17.3954 1.1859 17.6258 0.955494C17.8562 0.725092 18.1476 0.60989 18.5 0.60989C18.8524 0.60989 19.1438 0.725092 19.3742 0.955494C19.6046 1.1859 19.7198 1.47729 19.7198 1.82967V5.8956C19.7198 6.24799 19.6046 6.53938 19.3742 6.76978C19.1438 7.00018 18.8524 7.11538 18.5 7.11538ZM18.5 36.3901C18.1476 36.3901 17.8562 36.2749 17.6258 36.0445C17.3954 35.8141 17.2802 35.5227 17.2802 35.1703V31.1044C17.2802 30.752 17.3954 30.4606 17.6258 30.2302C17.8562 29.9998 18.1476 29.8846 18.5 29.8846C18.8524 29.8846 19.1438 29.9998 19.3742 30.2302C19.6046 30.4606 19.7198 30.752 19.7198 31.1044V35.1703C19.7198 35.5227 19.6046 35.8141 19.3742 36.0445C19.1438 36.2749 18.8524 36.3901 18.5 36.3901ZM8.74176 10.4495L6.42418 8.17253C6.18022 7.92857 6.06502 7.63718 6.07857 7.29835C6.09212 6.95952 6.20733 6.66813 6.42418 6.42418C6.66813 6.18022 6.95952 6.05824 7.29835 6.05824C7.63718 6.05824 7.92857 6.18022 8.17253 6.42418L10.4495 8.74176C10.6663 8.98571 10.7747 9.27033 10.7747 9.5956C10.7747 9.92088 10.6663 10.1919 10.4495 10.4088C10.2326 10.6527 9.95476 10.7747 9.61593 10.7747C9.27711 10.7747 8.98571 10.6663 8.74176 10.4495ZM28.8275 30.5758L26.5506 28.2582C26.3337 28.0143 26.2253 27.7229 26.2253 27.3841C26.2253 27.0452 26.3473 26.7674 26.5912 26.5506C26.8081 26.3066 27.0791 26.1846 27.4044 26.1846C27.7297 26.1846 28.0143 26.3066 28.2582 26.5506L30.5758 28.8275C30.8198 29.0714 30.935 29.3628 30.9214 29.7016C30.9079 30.0405 30.7927 30.3319 30.5758 30.5758C30.3319 30.8198 30.0405 30.9418 29.7016 30.9418C29.3628 30.9418 29.0714 30.8198 28.8275 30.5758ZM26.5506 10.4495C26.3066 10.2055 26.1846 9.92088 26.1846 9.5956C26.1846 9.27033 26.3066 8.98571 26.5506 8.74176L28.8275 6.42418C29.0714 6.18022 29.3628 6.06502 29.7016 6.07857C30.0405 6.09212 30.3319 6.20733 30.5758 6.42418C30.8198 6.66813 30.9418 6.95952 30.9418 7.29835C30.9418 7.63718 30.8198 7.92857 30.5758 8.17253L28.2582 10.4495C28.0414 10.6663 27.7636 10.7747 27.4247 10.7747C27.0859 10.7747 26.7945 10.6663 26.5506 10.4495ZM6.42418 30.5758C6.18022 30.3319 6.05824 30.0405 6.05824 29.7016C6.05824 29.3628 6.18022 29.0714 6.42418 28.8275L8.74176 26.5506C8.98571 26.3066 9.27033 26.1846 9.5956 26.1846C9.92088 26.1846 10.2055 26.3066 10.4495 26.5506C10.6934 26.7945 10.8154 27.0791 10.8154 27.4044C10.8154 27.7297 10.6934 28.0143 10.4495 28.2582L8.17253 30.5758C7.92857 30.8198 7.63718 30.935 7.29835 30.9214C6.95952 30.9079 6.66813 30.7927 6.42418 30.5758Z" fill="#EEEEEE"/>
<path fill-rule="evenodd" clip-rule="evenodd" d="M18.5 1.21978C18.2948 1.21978 18.1632 1.28062 18.0571 1.38675C17.9509 1.49289 17.8901 1.6245 17.8901 1.82967V5.8956C17.8901 6.10078 17.9509 6.23239 18.0571 6.33852C18.1632 6.44466 18.2948 6.50549 18.5 6.50549C18.7052 6.50549 18.8368 6.44466 18.9429 6.33852C19.0491 6.23239 19.1099 6.10078 19.1099 5.8956V1.82967C19.1099 1.6245 19.0491 1.49289 18.9429 1.38675C18.8368 1.28062 18.7052 1.21978 18.5 1.21978ZM17.1946 0.524237C17.5492 0.169567 18.0004 0 18.5 0C18.9996 0 19.4508 0.169567 19.8054 0.524237C20.1601 0.878907 20.3297 1.33008 20.3297 1.82967V5.8956C20.3297 6.39519 20.1601 6.84637 19.8054 7.20104C19.4508 7.55571 18.9996 7.72527 18.5 7.72527C18.0004 7.72527 17.5492 7.55571 17.1946 7.20104C16.8399 6.84637 16.6703 6.39519 16.6703 5.8956V1.82967C16.6703 1.33008 16.8399 0.878907 17.1946 0.524237ZM6.86826 6.84287C6.75646 6.974 6.69586 7.12563 6.68797 7.32273C6.68139 7.4874 6.72903 7.61417 6.85377 7.7396L9.15681 10.0022C9.28219 10.1101 9.42526 10.1648 9.61593 10.1648C9.7881 10.1648 9.89742 10.1118 9.99361 10.0036L10.0055 9.99021L10.0182 9.97753C10.1132 9.88254 10.1648 9.77002 10.1648 9.5956C10.1648 9.42465 10.1142 9.28672 10.0023 9.15689L7.73959 6.85375C7.60818 6.72304 7.47141 6.66813 7.29835 6.66813C7.13018 6.66813 6.99627 6.71999 6.86826 6.84287ZM5.99292 5.99292C6.34891 5.63692 6.79449 5.44835 7.29835 5.44835C7.80221 5.44835 8.24779 5.63693 8.60378 5.99292L8.6076 5.99673L10.8952 8.32519L10.9053 8.33657C11.221 8.69174 11.3846 9.12039 11.3846 9.5956C11.3846 10.0658 11.2235 10.4906 10.8934 10.8273C10.5573 11.1981 10.1155 11.3846 9.61593 11.3846C9.13397 11.3846 8.69674 11.2254 8.33657 10.9053L8.32519 10.8952L5.9929 8.6038C5.63097 8.24187 5.44868 7.78622 5.46917 7.27398C5.48812 6.80022 5.65395 6.37268 5.96834 6.01899L5.98025 6.00559L5.99292 5.99292ZM29.2604 6.85376L29.2587 6.85543L26.9856 9.16918L26.9818 9.17302C26.8445 9.3103 26.7945 9.44266 26.7945 9.5956C26.7945 9.74371 26.8414 9.87252 26.969 10.0052C27.0936 10.1111 27.2358 10.1648 27.4247 10.1648C27.6204 10.1648 27.737 10.1081 27.827 10.0182L27.8308 10.0144L30.1446 7.74127L30.1462 7.73965C30.2769 7.60823 30.3319 7.47144 30.3319 7.29835C30.3319 7.13018 30.28 6.99627 30.1571 6.86825C30.026 6.75646 29.8744 6.69586 29.6773 6.68797C29.5126 6.68139 29.3858 6.72903 29.2604 6.85376ZM28.3962 5.99292C28.7582 5.63098 29.2138 5.44868 29.726 5.46917C30.1998 5.48812 30.6273 5.65395 30.981 5.96834L30.9944 5.98025L31.0071 5.99292C31.3631 6.34891 31.5516 6.79449 31.5516 7.29835C31.5516 7.80221 31.3631 8.24779 31.0071 8.60378L31.0033 8.6076L28.6895 10.8807L28.6875 10.8827C28.344 11.2251 27.9057 11.3846 27.4247 11.3846C26.9428 11.3846 26.5055 11.2254 26.1454 10.9053L26.132 10.8934L26.1193 10.8807C25.7687 10.5301 25.5747 10.0932 25.5747 9.5956C25.5747 9.09897 25.7679 8.66283 26.1173 8.31255L26.1193 8.3105L28.3924 5.99675L28.3962 5.99292ZM18.5 10.978C16.4113 10.978 14.6489 11.707 13.178 13.178C11.707 14.6489 10.978 16.4113 10.978 18.5C10.978 20.5887 11.707 22.3511 13.178 23.822C14.6489 25.293 16.4113 26.022 18.5 26.022C20.5887 26.022 22.3511 25.293 23.822 23.822C25.293 22.3511 26.022 20.5887 26.022 18.5C26.022 16.4113 25.293 14.6489 23.822 13.178C22.3511 11.707 20.5887 10.978 18.5 10.978ZM12.3154 12.3154C14.016 10.6149 16.089 9.75824 18.5 9.75824C20.911 9.75824 22.984 10.6149 24.6846 12.3154C26.3851 14.016 27.2418 16.089 27.2418 18.5C27.2418 20.911 26.3851 22.984 24.6846 24.6846C22.984 26.3851 20.911 27.2418 18.5 27.2418C16.089 27.2418 14.016 26.3851 12.3154 24.6846C10.6149 22.984 9.75824 20.911 9.75824 18.5C9.75824 16.089 10.6149 14.016 12.3154 12.3154ZM14.0435 14.0435C15.2692 12.8177 16.7661 12.1978 18.5 12.1978C20.2339 12.1978 21.7308 12.8177 22.9565 14.0435C24.1823 15.2692 24.8022 16.7661 24.8022 18.5C24.8022 20.2339 24.1823 21.7308 22.9565 22.9565C21.7308 24.1823 20.2339 24.8022 18.5 24.8022C16.7661 24.8022 15.2692 24.1823 14.0435 22.9565C12.8177 21.7308 12.1978 20.2339 12.1978 18.5C12.1978 16.7661 12.8177 15.2692 14.0435 14.0435ZM18.5 13.4176C17.0895 13.4176 15.9029 13.909 14.906 14.906C13.909 15.9029 13.4176 17.0895 13.4176 18.5C13.4176 19.9105 13.909 21.0971 14.906 22.094C15.9029 23.091 17.0895 23.5824 18.5 23.5824C19.9105 23.5824 21.0971 23.091 22.094 22.094C23.091 21.0971 23.5824 19.9105 23.5824 18.5C23.5824 17.0895 23.091 15.9029 22.094 14.906C21.0971 13.909 19.9105 13.4176 18.5 13.4176ZM1.82967 17.8901C1.6245 17.8901 1.49289 17.9509 1.38675 18.0571C1.28062 18.1632 1.21978 18.2948 1.21978 18.5C1.21978 18.7052 1.28062 18.8368 1.38675 18.9429C1.49289 19.0491 1.6245 19.1099 1.82967 19.1099H5.8956C6.10078 19.1099 6.23239 19.0491 6.33852 18.9429C6.44466 18.8368 6.50549 18.7052 6.50549 18.5C6.50549 18.2948 6.44466 18.1632 6.33852 18.0571C6.23239 17.9509 6.10078 17.8901 5.8956 17.8901H1.82967ZM0.524237 17.1946C0.878907 16.8399 1.33008 16.6703 1.82967 16.6703H5.8956C6.39519 16.6703 6.84637 16.8399 7.20104 17.1946C7.55571 17.5492 7.72527 18.0004 7.72527 18.5C7.72527 18.9996 7.55571 19.4508 7.20104 19.8054C6.84637 20.1601 6.39519 20.3297 5.8956 20.3297H1.82967C1.33008 20.3297 0.878907 20.1601 0.524237 19.8054C0.169567 19.4508 0 18.9996 0 18.5C0 18.0004 0.169567 17.5492 0.524237 17.1946ZM31.1044 17.8901C30.8992 17.8901 30.7676 17.9509 30.6615 18.0571C30.5553 18.1632 30.4945 18.2948 30.4945 18.5C30.4945 18.7052 30.5553 18.8368 30.6615 18.9429C30.7676 19.0491 30.8992 19.1099 31.1044 19.1099H35.1703C35.3755 19.1099 35.5071 19.0491 35.6132 18.9429C35.7194 18.8368 35.7802 18.7052 35.7802 18.5C35.7802 18.2948 35.7194 18.1632 35.6132 18.0571C35.5071 17.9509 35.3755 17.8901 35.1703 17.8901H31.1044ZM29.799 17.1946C30.1536 16.8399 30.6048 16.6703 31.1044 16.6703H35.1703C35.6699 16.6703 36.1211 16.8399 36.4758 17.1946C36.8304 17.5492 37 18.0004 37 18.5C37 18.9996 36.8304 19.4508 36.4758 19.8054C36.1211 20.1601 35.6699 20.3297 35.1703 20.3297H31.1044C30.6048 20.3297 30.1536 20.1601 29.799 19.8054C29.4443 19.4508 29.2747 18.9996 29.2747 18.5C29.2747 18.0004 29.4443 17.5492 29.799 17.1946ZM9.5956 26.7945C9.44266 26.7945 9.3103 26.8445 9.17302 26.9818L9.16918 26.9856L6.85543 29.2587L6.85375 29.2604C6.72304 29.3918 6.66813 29.5286 6.66813 29.7016C6.66813 29.8698 6.71999 30.0037 6.84286 30.1317C6.974 30.2435 7.12563 30.3041 7.32273 30.312C7.48743 30.3186 7.61421 30.271 7.73967 30.1462L7.74127 30.1446L10.0144 27.8308L10.0182 27.827C10.1555 27.6897 10.2055 27.5573 10.2055 27.4044C10.2055 27.2514 10.1555 27.1191 10.0182 26.9818C9.88091 26.8445 9.74855 26.7945 9.5956 26.7945ZM8.31255 26.1173C8.66283 25.7679 9.09897 25.5747 9.5956 25.5747C10.0932 25.5747 10.5301 25.7687 10.8807 26.1193C11.2313 26.4699 11.4253 26.9068 11.4253 27.4044C11.4253 27.9011 11.2321 28.3372 10.8827 28.6875L10.8807 28.6895L8.60758 31.0032L8.60378 31.0071C8.24185 31.369 7.78623 31.5513 7.27398 31.5308C6.80021 31.5119 6.37267 31.346 6.01899 31.0317L6.00559 31.0198L5.99292 31.0071C5.63693 30.6511 5.44835 30.2055 5.44835 29.7016C5.44835 29.1978 5.63692 28.7522 5.99292 28.3962L5.99675 28.3924L8.3105 26.1193L8.31255 26.1173ZM27.4044 26.7945C27.254 26.7945 27.1486 26.8415 27.047 26.9557L27.0232 26.9826L26.9964 27.0064C26.8882 27.1026 26.8352 27.2119 26.8352 27.3841C26.8352 27.5747 26.8899 27.7178 26.9978 27.8432L29.2587 30.1446L29.2604 30.1462C29.3918 30.2769 29.5286 30.3319 29.7016 30.3319C29.8698 30.3319 30.0037 30.28 30.1317 30.1571C30.2435 30.026 30.3041 29.8744 30.312 29.6773C30.3186 29.5126 30.271 29.3858 30.1462 29.2604L30.1446 29.2587L27.8308 26.9856L27.827 26.9818C27.6897 26.8445 27.5573 26.7945 27.4044 26.7945ZM26.1594 26.1189C26.4884 25.7624 26.9162 25.5747 27.4044 25.5747C27.9011 25.5747 28.3373 25.7679 28.6876 26.1174L28.6895 26.1193L31.0071 28.3962C31.369 28.7581 31.5513 29.2138 31.5308 29.726C31.5119 30.1998 31.346 30.6273 31.0317 30.981L31.0198 30.9944L31.0071 31.0071C30.6511 31.3631 30.2055 31.5516 29.7016 31.5516C29.1978 31.5516 28.7522 31.3631 28.3962 31.0071L28.3924 31.0033L26.1048 28.6748L26.0947 28.6634C25.7746 28.3033 25.6154 27.866 25.6154 27.3841C25.6154 26.8905 25.7974 26.4534 26.1594 26.1189ZM18.5 30.4945C18.2948 30.4945 18.1632 30.5553 18.0571 30.6615C17.9509 30.7676 17.8901 30.8992 17.8901 31.1044V35.1703C17.8901 35.3755 17.9509 35.5071 18.0571 35.6132C18.1632 35.7194 18.2948 35.7802 18.5 35.7802C18.7052 35.7802 18.8368 35.7194 18.9429 35.6132C19.0491 35.5071 19.1099 35.3755 19.1099 35.1703V31.1044C19.1099 30.8992 19.0491 30.7676 18.9429 30.6615C18.8368 30.5553 18.7052 30.4945 18.5 30.4945ZM17.1946 29.799C17.5492 29.4443 18.0004 29.2747 18.5 29.2747C18.9996 29.2747 19.4508 29.4443 19.8054 29.799C20.1601 30.1536 20.3297 30.6048 20.3297 31.1044V35.1703C20.3297 35.6699 20.1601 36.1211 19.8054 36.4758C19.4508 36.8304 18.9996 37 18.5 37C18.0004 37 17.5492 36.8304 17.1946 36.4758C16.8399 36.1211 16.6703 35.6699 16.6703 35.1703V31.1044C16.6703 30.6048 16.8399 30.1536 17.1946 29.799Z" fill="#EEEEEE"/>
</svg>
