<svg xmlns="http://www.w3.org/2000/svg" viewBox="0 0 339.81 94.92"><g id="Layer_2" data-name="Layer 2"><g id="Layer_1-2" data-name="Layer 1"><path d="M270,3.37c-6.87-4.58-14.39-2.86-16.52-2.23a19.34,19.34,0,0,0-11.58,9.44,17.37,17.37,0,0,0-1.7,4.55,24.92,24.92,0,0,0-14.92,18.76,25.7,25.7,0,0,0,2.19,15.63c-1.45,3.41-5.36,14.51.34,24.23a24.13,24.13,0,0,0,11.51,9.84,25.31,25.31,0,0,0,6.64,1.8,15.42,15.42,0,0,0,6.19,6.93,17,17,0,0,0,8.76,2.35,17.7,17.7,0,0,0,8.23-2,16,16,0,0,0,8.51-13.42V17.57A17.2,17.2,0,0,0,270,3.37ZM264.1,84.31a6.79,6.79,0,0,1-6.49-.07A6.06,6.06,0,0,1,255.13,77a4.74,4.74,0,0,0-3.36-6,5.17,5.17,0,0,0-6.4,3.14c-.14.41-.26.83-.36,1.24a13.64,13.64,0,0,1-1.46-.53,14.28,14.28,0,0,1-6.82-5.73A15.3,15.3,0,0,1,235.23,59a24.71,24.71,0,0,0,5.08,2.91,12.77,12.77,0,0,0,1.9,3,13.25,13.25,0,0,0,9.71,4.44h.36a15.14,15.14,0,0,0,10.8-4.66,4.6,4.6,0,0,0-.36-6.78,5.36,5.36,0,0,0-7.23.34,4.26,4.26,0,0,1-3.3,1.51,2.76,2.76,0,0,1-2.05-.9c-.93-1.07-1.36-3.48-.32-5.81a4.7,4.7,0,0,0-2.76-6.27,5.24,5.24,0,0,0-6.69,2.59c-.12.27-.2.55-.3.82a16.77,16.77,0,0,1-4.74-14.75A15.77,15.77,0,0,1,240.9,26a24.47,24.47,0,0,0,1.26,3,14.56,14.56,0,0,0-2.79,2.86,4.61,4.61,0,0,0,1.31,6.67,5.33,5.33,0,0,0,7.11-1.22,3.85,3.85,0,0,1,2.45-1.62,2.19,2.19,0,0,1,1.64.38,5,5,0,0,1,1.37,5,4.81,4.81,0,0,0,3.91,5.71,5.84,5.84,0,0,0,1.09.11,5.06,5.06,0,0,0,5-3.78,14.13,14.13,0,0,0-5.12-14.61,12.57,12.57,0,0,0-6-2.3A1.67,1.67,0,0,0,252,26c0-.06-3.79-5.88-1-11a9.46,9.46,0,0,1,5.55-4.64,9.24,9.24,0,0,1,7.51.9,7.9,7.9,0,0,1,3.35,6.33V79.1A6.53,6.53,0,0,1,264.1,84.31Z" style="stroke:#000;stroke-miterlimit:10;stroke-width:0.5px"/><path d="M336.87,49.47a25.82,25.82,0,0,0,2.18-15.62,25,25,0,0,0-14.92-18.77,17.74,17.74,0,0,0-1.7-4.55A19.33,19.33,0,0,0,310.86,1.1c-2.14-.64-9.66-2.35-16.53,2.23a17.16,17.16,0,0,0-7.65,14.14V79.28a16,16,0,0,0,8.51,13.35,17.83,17.83,0,0,0,8.23,2,17,17,0,0,0,8.76-2.36,15.42,15.42,0,0,0,6.19-6.93,24.93,24.93,0,0,0,6.64-1.8,24.17,24.17,0,0,0,11.51-9.83C342.25,63.93,338.39,53,336.87,49.47Zm-9.31,19.62a14.13,14.13,0,0,1-6.83,5.74,15,15,0,0,1-1.45.53c-.1-.42-.22-.83-.36-1.24a5.17,5.17,0,0,0-6.4-3.15,4.74,4.74,0,0,0-3.36,6,6.07,6.07,0,0,1-2.48,7.22,6.76,6.76,0,0,1-6.49.07,6.53,6.53,0,0,1-3.28-5.06V17.42a7.9,7.9,0,0,1,3.35-6.28,9.24,9.24,0,0,1,7.51-.9,9.53,9.53,0,0,1,5.55,4.64c2.79,5.14-1,11-1,11a2.53,2.53,0,0,0-.12.23,12.57,12.57,0,0,0-6,2.3A14.15,14.15,0,0,0,301,43a5.05,5.05,0,0,0,5,3.78,5.84,5.84,0,0,0,1.09-.11A4.8,4.8,0,0,0,311,41a5,5,0,0,1,1.37-5,2.22,2.22,0,0,1,1.64-.37,3.75,3.75,0,0,1,2.44,1.61,5.34,5.34,0,0,0,7.12,1.23,4.62,4.62,0,0,0,1.31-6.67A14.29,14.29,0,0,0,322.13,29a24.68,24.68,0,0,0,1.26-3A15.73,15.73,0,0,1,329,35.4a16.79,16.79,0,0,1-4.73,14.76c-.11-.28-.18-.56-.3-.83a5.25,5.25,0,0,0-6.69-2.59A4.7,4.7,0,0,0,314.47,53c1,2.34.61,4.74-.33,5.81a2.72,2.72,0,0,1-2,.9,4.34,4.34,0,0,1-3.3-1.51,5.36,5.36,0,0,0-7.23-.33,4.59,4.59,0,0,0-.36,6.77A15.11,15.11,0,0,0,312,69.32h.36a13.24,13.24,0,0,0,9.71-4.43,12.84,12.84,0,0,0,1.9-3,25.14,25.14,0,0,0,5.08-2.9A15.27,15.27,0,0,1,327.56,69.09Z" style="stroke:#000;stroke-miterlimit:10;stroke-width:0.5px"/><path d="M12.81,94.67H4.36A4.25,4.25,0,0,1,0,90.54V19.31C0,6.67,3.86.36,15,.36H25q7,0,11.11,3.45a4.53,4.53,0,0,0,5.78,0Q45.94.36,53.08.36h10c11.16,0,13.84,6.31,13.84,19V90.54a4.25,4.25,0,0,1-4.35,4.13H65.26a4.26,4.26,0,0,1-4.36-4.13v-73a3,3,0,0,0-.74-2,2.32,2.32,0,0,0-1.82-.86H51.05a2.32,2.32,0,0,0-1.82.86,3,3,0,0,0-.74,2l-1.7,70.63c0,3.56-1.35,6.46-5.11,6.46H36.4c-3.76,0-5.34-2.89-5.34-6.45L29.59,17.58a3,3,0,0,0-.74-2A2.33,2.33,0,0,0,27,14.71H19.74a2.32,2.32,0,0,0-1.82.86,3,3,0,0,0-.75,2v73A4.25,4.25,0,0,1,12.81,94.67Z"/><path d="M150,94.67H141.5a4.25,4.25,0,0,1-4.36-4.13V19.31c0-12.64,3.86-18.95,15-18.95h10q7,0,11.11,3.45a4.53,4.53,0,0,0,5.78,0q4-3.42,11.19-3.42h10c11.16,0,13.84,6.31,13.84,19V90.54a4.25,4.25,0,0,1-4.35,4.13H202.4A4.26,4.26,0,0,1,198,90.54v-73a3,3,0,0,0-.74-2,2.32,2.32,0,0,0-1.82-.86h-7.29a2.32,2.32,0,0,0-1.82.86,3,3,0,0,0-.74,2l-1.7,70.63c0,3.56-1.35,6.46-5.11,6.46h-5.28c-3.76,0-5.33-2.89-5.33-6.45l-1.48-70.64a3,3,0,0,0-.74-2,2.33,2.33,0,0,0-1.82-.86h-7.29a2.32,2.32,0,0,0-1.82.86,3,3,0,0,0-.75,2v73A4.25,4.25,0,0,1,150,94.67Z"/><path d="M110.65,80.82h11.7a6.68,6.68,0,0,1,6.81,6.55v.75a6.68,6.68,0,0,1-6.81,6.55H96.16a6.68,6.68,0,0,1-6.81-6.55V6.9A6.68,6.68,0,0,1,96.16.36h26.19a6.68,6.68,0,0,1,6.81,6.54V8a6.69,6.69,0,0,1-6.81,6.55h-11.7a6.68,6.68,0,0,0-6.81,6.55V33.69a6.68,6.68,0,0,0,6.81,6.54H121a6.68,6.68,0,0,1,6.81,6.55v1.84A6.68,6.68,0,0,1,121,55.17H110.65a6.68,6.68,0,0,0-6.81,6.55V74.27A6.68,6.68,0,0,0,110.65,80.82Z"/></g></g></svg>