<svg width="95" height="95" viewBox="0 0 95 95" fill="none" xmlns="http://www.w3.org/2000/svg">
<path d="M18.1374 67.841C17.3333 67.0369 16.2648 66.5937 15.1273 66.5937C13.9899 66.5937 12.9207 67.0369 12.1172 67.841C10.4573 69.5003 10.4573 72.2014 12.1172 73.8613L19.9278 81.672C20.7575 82.5024 21.8473 82.9172 22.9372 82.9172C24.0278 82.9172 25.1184 82.5024 25.9473 81.672C27.6066 80.0127 27.6066 77.3117 25.9473 75.6517L18.1374 67.841ZM23.7023 79.4256C23.2946 79.834 22.5827 79.8347 22.1742 79.4256L14.3637 71.6148C14.1594 71.4106 14.0474 71.1397 14.0474 70.8511C14.0474 70.5618 14.1601 70.291 14.3644 70.0867C14.7721 69.6783 15.484 69.6783 15.8925 70.0867L23.7031 77.8975C23.9073 78.1017 24.0193 78.3726 24.0193 78.6612C24.0186 78.9505 23.9059 79.2221 23.7023 79.4256Z" fill="#EEEEEE"/>
<path d="M94.5345 16.8841L92.1903 14.5391L93.0674 13.6619C93.9361 12.7933 93.9361 11.3857 93.0674 10.5171L84.4832 1.93268C83.6145 1.06475 82.2077 1.06475 81.3391 1.93268L80.462 2.80984L78.1163 0.464824C77.4958 -0.154941 76.4903 -0.154941 75.8706 0.464824C75.2501 1.08459 75.2501 2.0908 75.8706 2.71127L78.2156 5.05629L77.1278 6.14405L74.7828 3.79904C74.1624 3.17927 73.1569 3.17927 72.5371 3.79904C71.9167 4.4188 71.9167 5.42501 72.5371 6.04548L74.8821 8.3905L73.7944 9.47827L71.4494 7.13325C70.8289 6.51278 69.8234 6.51349 69.2037 7.13325C68.5833 7.75373 68.5833 8.75993 69.2037 9.3797L71.5487 11.7247L70.6723 12.6012C70.4801 12.7933 70.3255 13.0181 70.2149 13.2649L67.5481 19.2242L52.1728 34.5982C46.1407 30.0436 37.6357 30.3337 31.918 35.6059L26.7727 40.3513C24.8418 42.1318 22.3366 43.2196 19.7173 43.4117C14.6303 43.7868 9.84182 45.98 6.23322 49.5874C1.82409 53.998 -0.423766 60.0927 0.0661774 66.3123L0.154814 67.4363C0.552614 72.4816 2.74304 77.2311 6.32186 80.8093L10.2567 84.7442L10.2588 84.7456L14.1914 88.6783C17.7695 92.2571 22.519 94.4475 27.5649 94.8454L28.6895 94.9341C29.2526 94.9787 29.8149 95 30.3736 95C35.9968 95 41.4014 92.7777 45.4114 88.7662C49.0193 85.159 51.2118 80.3697 51.587 75.2812C51.7799 72.6624 52.8669 70.1571 54.6474 68.2264L59.3939 63.0811C64.6661 57.3636 64.9561 48.8585 60.4009 42.8258L75.7741 27.4523L81.7347 24.7855C81.9822 24.6749 82.207 24.5196 82.3984 24.3281L83.2756 23.451L85.6213 25.7974C85.9312 26.1073 86.3382 26.2626 86.7445 26.2626C87.1508 26.2626 87.5571 26.1073 87.8677 25.7974C88.4882 25.1777 88.4882 24.1714 87.8677 23.5517L85.5227 21.2067L86.6105 20.1189L88.9547 22.4639C89.2646 22.7738 89.6716 22.9291 90.0779 22.9291C90.4842 22.9291 90.8905 22.7738 91.2011 22.4639C91.8216 21.8435 91.8216 20.8373 91.2011 20.2175L88.8569 17.8725L89.9446 16.7847L92.2889 19.1297C92.5988 19.4396 93.0058 19.5949 93.4121 19.5949C93.8184 19.5949 94.2247 19.4396 94.5353 19.1297C95.155 18.51 95.155 17.5046 94.5345 16.8841ZM56.1251 60.0667L51.3785 65.212C48.9193 67.8789 47.4183 71.3394 47.1523 74.9566C46.8559 78.9815 45.1208 82.7688 42.2681 85.6222C38.7801 89.1111 33.9576 90.8937 29.04 90.5002L27.9154 90.4115C23.9247 90.0967 20.1678 88.3637 17.3372 85.5336L13.4046 81.6009L13.4032 81.5988L9.46839 77.6639C6.63765 74.8331 4.90533 71.0764 4.59056 67.0856L4.50192 65.9617C4.11405 61.0433 5.89173 56.2214 9.37976 52.7333C12.2339 49.8798 16.0219 48.1448 20.046 47.849C23.6631 47.5831 27.1234 46.0812 29.7904 43.6221L34.9356 38.8767C38.888 35.2305 44.6998 34.8866 48.9991 37.7755L40.9977 45.7748C36.9587 44.6331 32.4347 45.6436 29.2616 48.8147C24.7446 53.331 24.6136 60.5815 28.8404 65.2738L27.8306 68.6101C26.8847 71.7393 28.0164 75.1445 30.648 77.086C31.7485 77.8972 33.049 78.4042 34.4083 78.5517L34.9678 78.6127C35.2507 78.6439 35.5336 78.6588 35.8137 78.6588C37.8574 78.6588 39.8122 77.8553 41.2786 76.3896L45.5204 72.1478C47.1251 70.5438 47.9427 68.3249 47.7653 66.0602L47.6044 64.0257C48.9573 62.0523 49.6912 59.7222 49.6912 57.2779C49.6912 56.1525 49.5288 55.0534 49.2303 53.9996L57.2268 46.003C60.1149 50.3016 59.7706 56.1133 56.1251 60.0667ZM43.0409 51.9602C45.9729 54.8923 45.9729 59.664 43.0409 62.5961C40.1101 65.5282 35.3394 65.529 32.4059 62.5961C29.4739 59.664 29.4739 54.8923 32.4059 51.9602C33.8723 50.4938 35.7976 49.7614 37.7241 49.7614C39.6487 49.7614 41.5745 50.4946 43.0409 51.9602ZM30.87 69.5297L31.4898 67.4804C33.3973 68.6448 35.5571 69.2404 37.7227 69.2404C40.1316 69.2404 42.5339 68.5086 44.5874 67.0669C44.4945 68.1299 44.0399 69.1348 43.2727 69.9005L39.0309 74.1423C38.0467 75.1265 36.6881 75.6023 35.3089 75.4534L34.7494 75.3924C33.9467 75.3052 33.1802 75.0067 32.5306 74.5281C30.9798 73.3836 30.3126 71.3748 30.87 69.5297ZM47.1551 49.7846L45.2156 47.8451L69.4078 23.6525L71.3473 25.592L47.1551 49.7846ZM74.9814 22.938L72.0636 20.0193L74.1058 15.4569L82.9113 6.65049L88.3506 12.0906L79.5451 20.897L74.9814 22.938Z" fill="#EEEEEE"/>
</svg>
