<svg width="88" height="89" viewBox="0 0 88 89" fill="none" xmlns="http://www.w3.org/2000/svg">
<path d="M87.7514 39.7922C86.683 29.6683 82.1973 20.1722 75.0334 12.9668C74.4813 12.412 73.9138 11.8706 73.3315 11.3442C73.3301 11.3428 73.3287 11.342 73.328 11.3413C65.264 4.02771 54.8481 0 43.9971 0C33.1698 0 22.7712 4.01227 14.7201 11.2954C5.37582 19.7228 0.0132224 31.8108 0.00280612 44.4688C0.00280612 44.4802 0 44.4908 0 44.5021C0 44.5135 0.00280612 44.5234 0.00280612 44.5355C0.0035076 45.3167 0.0238524 46.0957 0.0645407 46.8718C0.110841 47.7516 0.189413 48.6264 0.286929 49.497C1.41078 59.5351 5.88803 68.9371 13.0119 76.0771C13.5654 76.632 14.135 77.174 14.7201 77.7005C14.7215 77.7019 14.7229 77.7026 14.7236 77.7033C22.7639 84.9735 33.1389 88.9816 43.9431 88.9943C43.9614 88.995 43.9789 89 43.9979 89C44.0168 89 44.035 88.995 44.054 88.9943C54.8877 88.9794 65.2835 84.953 73.331 77.6515C82.6536 69.2276 88 57.1452 88 44.5035C88 42.9221 87.9165 41.3499 87.7524 39.7924L87.7514 39.7922ZM83.3852 48.6219C83.3578 48.8929 83.3178 49.1618 83.2848 49.4314C83.2343 49.8401 83.1852 50.2488 83.1235 50.6553C83.0793 50.9412 83.0246 51.2243 82.9748 51.5088C82.906 51.8962 82.8387 52.2836 82.7601 52.6682C82.7005 52.9584 82.6303 53.2457 82.5644 53.5352C82.4781 53.9098 82.3918 54.2837 82.2957 54.6548C82.2199 54.9457 82.1364 55.2344 82.0544 55.5239C81.9512 55.8879 81.846 56.2512 81.7331 56.6116C81.6419 56.9004 81.545 57.187 81.4475 57.4736C81.3269 57.8298 81.2027 58.1846 81.0729 58.5365C80.967 58.821 80.8576 59.1027 80.746 59.3843C80.6078 59.7334 80.4647 60.0811 80.3167 60.4266C80.1981 60.704 80.0753 60.98 79.9505 61.2539C79.794 61.5973 79.632 61.9378 79.4657 62.277C79.3338 62.5459 79.2005 62.8141 79.0623 63.0802C78.8877 63.4179 78.706 63.7513 78.5215 64.0834C78.3777 64.3431 78.2338 64.602 78.083 64.8582C77.8887 65.1909 77.6874 65.5187 77.4825 65.8451C77.3282 66.0927 77.1745 66.3417 77.0146 66.5858C76.7999 66.9136 76.5761 67.2357 76.3523 67.5578C76.1889 67.7927 76.0275 68.0289 75.8592 68.2602C75.6213 68.5866 75.373 68.9052 75.1254 69.2237C74.9563 69.4408 74.7914 69.6608 74.6182 69.8751C74.3523 70.2028 74.0745 70.5228 73.7974 70.8435C73.6283 71.0393 73.4641 71.238 73.2916 71.431C72.9829 71.7744 72.6609 72.1065 72.3403 72.4399C72.186 72.5995 72.0386 72.7634 71.8822 72.9202C71.8647 72.938 71.8457 72.9543 71.8282 72.972C64.6115 66.0998 60.2986 56.7244 59.7388 46.7279H83.5347C83.5255 46.9032 83.5073 47.0784 83.4954 47.2536C83.4631 47.7106 83.4322 48.1675 83.3852 48.6223L83.3852 48.6219ZM16.1641 72.9698C15.9957 72.8016 15.8358 72.6249 15.6709 72.4532C15.3601 72.1325 15.0494 71.8111 14.7512 71.4805C14.5688 71.279 14.3962 71.0697 14.2187 70.8646C13.9501 70.5539 13.6793 70.2445 13.4204 69.926C13.2401 69.7039 13.0676 69.4761 12.8922 69.2505C12.6494 68.939 12.4067 68.6276 12.1745 68.3097C12.0005 68.072 11.8343 67.8294 11.6659 67.5881C11.4456 67.2731 11.226 66.9567 11.0149 66.6353C10.8507 66.3848 10.6929 66.1308 10.5343 65.8761C10.333 65.5547 10.1337 65.2312 9.94223 64.9048C9.78929 64.6444 9.64197 64.3798 9.49535 64.1158C9.31296 63.788 9.13337 63.4581 8.96008 63.1246C8.81907 62.8543 8.68367 62.5819 8.54898 62.308C8.38412 61.9731 8.22417 61.6354 8.06842 61.2962C7.94145 61.0181 7.81728 60.7393 7.69662 60.4583C7.54859 60.1149 7.40688 59.7701 7.26939 59.4224C7.15714 59.1386 7.0456 58.8541 6.93967 58.5682C6.80919 58.217 6.68572 57.8623 6.56507 57.5075C6.46685 57.2195 6.36863 56.9307 6.27813 56.6405C6.16449 56.2801 6.05997 55.9161 5.95613 55.5528C5.87405 55.2626 5.78986 54.9732 5.71339 54.6809C5.61658 54.3098 5.5303 53.9352 5.4447 53.5605C5.37806 53.2703 5.3086 52.9816 5.24826 52.6893C5.16829 52.304 5.10094 51.9159 5.0329 51.5278C4.98239 51.2433 4.92767 50.9595 4.88347 50.6736C4.82034 50.2656 4.77193 49.8548 4.72072 49.444C4.68775 49.1737 4.64776 48.9048 4.6197 48.6338C4.5727 48.1776 4.54253 47.7185 4.51096 47.2595C4.49904 47.0821 4.4815 46.9061 4.47168 46.7288H28.3717C27.8112 56.7576 23.4771 66.1526 16.2261 73.0274C16.2044 73.0075 16.1833 72.9898 16.1644 72.9706L16.1641 72.9698ZM4.61689 40.3757C4.64495 40.1033 4.68494 39.8337 4.71791 39.5619C4.76842 39.1533 4.81753 38.7446 4.87997 38.338C4.92486 38.05 4.97958 37.764 5.03079 37.4774C5.09954 37.0914 5.16689 36.7048 5.24546 36.3216C5.30649 36.0272 5.37594 35.7363 5.444 35.444C5.52958 35.0729 5.61517 34.7011 5.71128 34.3329C5.78775 34.037 5.87263 33.744 5.95612 33.4503C6.05854 33.0898 6.16306 32.7294 6.27531 32.3718C6.36791 32.0788 6.46613 31.7879 6.56504 31.497C6.68501 31.1444 6.80778 30.7918 6.93755 30.4427C7.04418 30.1546 7.15644 29.8687 7.26938 29.5835C7.40688 29.2379 7.54859 28.8931 7.69521 28.5511C7.81658 28.2688 7.94075 27.9885 8.06842 27.7097C8.22346 27.3705 8.38341 27.0342 8.54827 26.6993C8.68297 26.4255 8.81906 26.1523 8.96008 25.8813C9.13335 25.5478 9.31294 25.2179 9.49535 24.8894C9.64197 24.6255 9.78928 24.3615 9.94152 24.1012C10.1337 23.7727 10.3344 23.4484 10.5364 23.1249C10.6936 22.8723 10.85 22.6204 11.0135 22.3714C11.2267 22.0464 11.4484 21.7272 11.6708 21.4086C11.8371 21.1709 12.0005 20.9311 12.1724 20.6962C12.4095 20.3727 12.6557 20.0556 12.9027 19.7391C13.0746 19.5192 13.2415 19.2957 13.4183 19.0793C13.6842 18.7522 13.9606 18.4344 14.237 18.1151C14.4082 17.9178 14.573 17.7171 14.7484 17.5234C15.0592 17.1793 15.3812 16.8458 15.7046 16.5116C15.8582 16.3527 16.0056 16.1888 16.162 16.032C16.1816 16.0121 16.2027 15.9937 16.223 15.9738C23.474 22.8546 27.8067 32.2519 28.3686 42.2779L4.46859 42.2772C4.47841 42.0998 4.49595 41.9245 4.50788 41.7479C4.53944 41.2895 4.57031 40.8305 4.61661 40.375L4.61689 40.3757ZM71.8829 16.0769C72.0477 16.2422 72.2028 16.4153 72.3641 16.5821C72.6763 16.9063 72.9899 17.2305 73.2901 17.564C73.4711 17.7648 73.6423 17.9734 73.8191 18.1777C74.0878 18.4885 74.3572 18.7985 74.6153 19.1171C74.7956 19.3399 74.9675 19.5684 75.1429 19.794C75.3835 20.104 75.6248 20.4141 75.8563 20.732C76.0303 20.9704 76.1966 21.2144 76.3649 21.4564C76.5838 21.7714 76.8027 22.0857 77.0117 22.4064C77.1759 22.6568 77.3331 22.9115 77.4916 23.1663C77.6915 23.487 77.8894 23.8091 78.0809 24.1354C78.2338 24.3958 78.3797 24.6605 78.5263 24.9244C78.708 25.2522 78.8869 25.5814 79.0602 25.9142C79.2005 26.1838 79.3352 26.4562 79.4692 26.7294C79.6334 27.0643 79.7933 27.4013 79.9491 27.7411C80.0753 28.0186 80.1995 28.2967 80.3195 28.577C80.4668 28.9203 80.6085 29.2652 80.746 29.6128C80.8575 29.8959 80.9684 30.179 81.0743 30.4649C81.2041 30.8161 81.3283 31.1709 81.4482 31.5264C81.5457 31.8137 81.6432 32.1004 81.7337 32.3898C81.8467 32.7503 81.9519 33.1135 82.055 33.4775C82.1371 33.767 82.2213 34.0557 82.2964 34.3481C82.3925 34.7191 82.4788 35.093 82.5651 35.467C82.6317 35.7564 82.7012 36.0445 82.7615 36.3361C82.8415 36.7214 82.9088 37.1095 82.9769 37.4976C83.0267 37.7814 83.0814 38.063 83.1249 38.3483C83.188 38.7569 83.2364 39.1684 83.2876 39.5792C83.3206 39.8474 83.3599 40.1142 83.3872 40.3831C83.4335 40.8386 83.4644 41.2969 83.496 41.7553C83.5079 41.9298 83.5254 42.1037 83.5353 42.2789H59.7394C60.2999 32.2842 64.6137 22.9059 71.8295 16.0257C71.8456 16.0427 71.8646 16.059 71.8821 16.0761L71.8829 16.0769ZM55.3317 42.2793H46.1999V4.52143C54.3524 4.97763 62.1309 7.96173 68.5213 13.076C60.6004 20.7678 55.8902 31.1897 55.3319 42.2807L55.3317 42.2793ZM41.7999 42.2793H32.7754C32.217 31.1592 27.488 20.7213 19.5368 13.0273C25.9137 7.94302 33.6719 4.97515 41.799 4.52106L41.7999 42.2793ZM32.7754 46.7293H41.7999V84.4798C33.6741 84.025 25.9166 81.0586 19.5377 75.9736C27.4888 68.2869 32.2178 57.8508 32.7756 46.7289L32.7754 46.7293ZM46.1999 46.7293H55.3317C55.8894 57.8216 60.5995 68.24 68.5198 75.9267C62.1318 81.0393 54.3524 84.0228 46.2002 84.4806L46.1999 46.7293Z" fill="#EEEEEE"/>
</svg>
