<svg width="89" height="88" viewBox="0 0 89 88" fill="none" xmlns="http://www.w3.org/2000/svg">
<path d="M86.5803 35.9276C83.3795 30.3656 77.6602 27.0461 71.2826 27.0461L58.7515 27.0468V22.6192C58.7515 18.469 56.9808 14.728 54.161 12.122V8.46736C54.161 5.55906 56.4914 3.19413 59.3554 3.19413C60.2329 3.19413 60.9444 2.47901 60.9444 1.59707C60.9444 0.71512 60.2329 0 59.3554 0C54.7385 0 50.9828 3.79864 50.9828 8.46736V9.90686C49.0702 8.93079 46.9114 8.37682 44.625 8.37682C42.3392 8.37682 40.1797 8.9308 38.2679 9.90686V8.46736C38.2679 3.79809 34.5122 0 29.896 0C29.0185 0 28.3069 0.71512 28.3069 1.59707C28.3069 2.47901 29.0185 3.19413 29.896 3.19413C32.76 3.19413 35.0897 5.55979 35.0897 8.46736V12.122C32.2706 14.7279 30.4992 18.4683 30.4992 22.6192V27.0461H17.7162C11.3386 27.0461 5.6193 30.3663 2.41915 35.929C-0.798797 41.5195 -0.806606 48.1994 2.39716 53.7975C5.59441 59.3836 11.3217 62.719 17.7169 62.719C20.495 62.719 23.1461 62.0888 25.519 60.9188C27.9444 74.9266 42.5513 86.9537 43.2282 87.503C43.6361 87.8346 44.1313 88 44.6264 88C45.1216 88 45.6175 87.8339 46.0247 87.503C46.6993 86.9555 61.2353 74.9883 63.7153 61.0246C66.0287 62.1219 68.5961 62.7179 71.2848 62.7179C77.681 62.7172 83.408 59.3812 86.604 53.7957H86.6047C89.8071 48.1981 89.7978 41.5175 86.5806 35.9272L86.5803 35.9276ZM82.7453 51.5668C80.3524 55.7491 76.0675 58.2467 71.2826 58.2467C66.499 58.2467 62.2128 55.7498 59.8199 51.5675L48.3451 31.5193L71.2824 31.5186C76.0533 31.5186 80.3324 34.004 82.7295 38.1679C85.1422 42.3595 85.1485 47.3695 82.7458 51.5668L82.7453 51.5668ZM58.0899 64.6328H31.1608C30.4357 62.7577 29.9228 60.8298 29.7206 58.887H59.5301C59.3272 60.8299 58.815 62.7577 58.0893 64.6328H58.0899ZM53.009 73.5763H36.2413C34.9268 71.7975 33.6724 69.8611 32.6127 67.8269H56.6379C55.5781 69.8611 54.3239 71.7982 53.0094 73.5763H53.009ZM17.7167 58.2474C12.9324 58.2474 8.64692 55.7505 6.25403 51.5682C3.85133 47.3702 3.85768 42.3609 6.27035 38.1686C8.66669 34.0049 12.946 31.5186 17.716 31.5186H40.6533L29.1806 51.5668C26.787 55.7491 22.5016 58.2467 17.7172 58.2467L17.7167 58.2474ZM42.1905 37.8014L44.4997 33.7667L46.8088 37.8014H42.1905ZM48.6362 40.9955L51.9271 46.7449H37.072L40.3622 40.9955H48.6362ZM33.0368 53.7963L35.2444 49.9391H53.756L55.9643 53.797C56.3453 54.4622 56.7638 55.0932 57.2136 55.6921H31.7882C32.2373 55.0925 32.6565 54.4623 33.0375 53.7963H33.0368ZM34.9493 22.6179C34.9493 17.2299 39.2902 12.8481 44.6257 12.8481C49.9619 12.8481 54.3028 17.2308 54.3028 22.6179V27.0455L44.5193 27.0463C44.5129 27.0463 44.5065 27.0448 44.5008 27.0448H34.9507L34.9493 22.6179ZM44.625 82.799C43.265 81.562 41.0758 79.453 38.7851 76.7694H50.4656C48.1749 79.4523 45.9849 81.562 44.625 82.799Z" fill="#EEEEEE"/>
</svg>
