<svg width="95" height="62" viewBox="0 0 95 62" fill="none" xmlns="http://www.w3.org/2000/svg">
<path d="M77.1574 26.3735C75.5196 26.3735 73.9335 26.6 72.4264 27.0142L63.2869 4.75723H75.3138C76.8187 4.75723 78.043 5.97928 78.043 7.48146C78.043 8.98363 76.8187 10.2064 75.3138 10.2064H73.3502C72.1259 10.2064 71.1335 11.197 71.1335 12.4191C71.1335 13.6412 72.1259 14.6318 73.3502 14.6318H75.3138C79.2629 14.6318 82.4763 11.4249 82.4763 7.48146C82.4763 3.53944 79.2637 0.331848 75.3138 0.331848L59.9823 0.331141C59.2429 0.331141 58.5531 0.698756 58.1417 1.31119C57.7303 1.92363 57.6511 2.70047 57.9317 3.38281L63.9951 18.1491H35.9637L33.1356 12.4967H36.3673C39.7346 12.4967 42.4751 9.97356 42.4751 6.87254C42.4751 4.02765 40.1631 1.62729 37.0967 1.28861L25.7843 0.0404391C23.9395 -0.162063 22.1249 0.4024 20.7961 1.58918C19.6044 2.6553 18.9477 4.08834 18.9477 5.6244V6.87258C18.9477 9.9736 21.6875 12.4968 25.0556 12.4968H28.1812L31.5543 19.2393L25.6833 28.1903C23.3153 27.0282 20.6541 26.3733 17.8423 26.3733C8.00443 26.374 0 34.3654 0 44.187C0 54.0087 8.00425 62 17.8415 62C26.9288 62 34.4454 55.1813 35.5416 46.3997H39.9326C40.802 48.5102 42.6602 50.1104 44.9292 50.6275V54.5025C44.9292 55.3753 45.6382 56.083 46.5125 56.083C47.3869 56.083 48.0959 55.3753 48.0959 54.5025V50.6275C51.2577 49.9064 53.6261 47.0805 53.6261 43.7085C53.6261 42.2875 53.2013 40.9646 52.4782 39.8532L66.5762 24.4357L68.3334 28.715C62.953 31.7857 59.3162 37.5686 59.3162 44.1868C59.3162 54.0085 67.3204 61.9998 77.1577 61.9998C86.9956 61.9998 95 54.0092 95 44.1868C95.0007 34.3652 86.9958 26.3739 77.1577 26.3739L77.1574 26.3735ZM23.3802 6.87294V5.62477C23.3802 5.29032 23.583 5.03843 23.7541 4.88603C24.0842 4.5911 24.5564 4.42599 25.0512 4.42599C25.1331 4.42599 25.2151 4.43023 25.2971 4.4394L36.6096 5.68757H36.6103C37.4132 5.77577 38.0423 6.29649 38.0423 6.87294C38.0423 7.5115 37.2599 8.07171 36.3678 8.07171H25.0547C24.1619 8.07171 23.3802 7.51148 23.3802 6.87294ZM33.8464 23.8223L41.3545 38.8285C40.5289 39.6985 39.9239 40.7744 39.6213 41.9725H35.5414C34.9766 37.4442 32.7048 33.4393 29.3876 30.6212L33.8464 23.8223ZM46.5109 42.1271C45.6366 42.1271 44.9276 42.8348 44.9276 43.7076V47.3153C43.5372 46.7043 42.5633 45.3185 42.5633 43.7076C42.5633 41.5345 44.3339 39.7663 46.5109 39.7663C48.6879 39.7663 50.4579 41.5345 50.4579 43.7076C50.4579 45.3185 49.4838 46.705 48.0943 47.3153V43.7076C48.0943 42.8348 47.386 42.1271 46.5109 42.1271ZM28.6383 41.974C28.1951 39.815 27.115 37.8859 25.6059 36.3872L26.9284 34.3714C29.0631 36.3421 30.5503 38.9893 31.0514 41.974H28.6383ZM15.8904 45.2387C16.277 45.9534 17.0263 46.3994 17.8405 46.3994H25.3712C24.412 49.6485 21.4014 52.0292 17.8405 52.0292C13.5089 52.0292 9.98607 48.5111 9.98607 44.1867C9.98607 39.8623 13.509 36.3449 17.8405 36.3449C18.6307 36.3449 19.3927 36.4642 20.1131 36.6822L15.9857 42.9745C15.5397 43.654 15.503 44.5233 15.8904 45.2387ZM21.9416 41.974L23.819 39.1122C24.5223 39.937 25.0581 40.9086 25.3726 41.974H21.9416ZM17.8405 57.5736C10.447 57.5736 4.43228 51.5684 4.43228 44.186C4.43228 36.8043 10.4468 30.7991 17.8405 30.7991C19.756 30.7991 21.5763 31.2098 23.226 31.9351L21.8957 33.9643C20.6389 33.4655 19.2741 33.1832 17.8413 33.1832C11.7638 33.1832 6.8202 38.1194 6.8202 44.186C6.8202 50.254 11.7645 55.1895 17.8413 55.1895C23.1597 55.1895 27.6105 51.4097 28.6391 46.3987H31.0515C29.9891 52.7291 24.4771 57.5736 17.8405 57.5736ZM49.0186 37.0687C48.2368 36.7738 47.3942 36.6038 46.51 36.6038C46.081 36.6038 45.6618 36.6489 45.2533 36.7216L38.1764 22.5748H62.2738L49.0186 37.0687ZM77.1567 57.5736C69.7631 57.5736 63.7485 51.5684 63.7485 44.186C63.7485 39.4178 66.2662 35.235 70.0358 32.8635L70.9533 35.0988C68.0474 37.0821 66.1347 40.4147 66.1347 44.1866C66.1347 50.2546 71.0791 55.19 77.1551 55.19C83.2326 55.19 88.1762 50.2538 88.1762 44.1866C88.1762 38.1193 83.2318 33.1838 77.1551 33.1838C76.432 33.1838 75.7273 33.2586 75.0423 33.3919L74.1248 31.1581C75.1003 30.9316 76.1117 30.8004 77.155 30.8004C84.5486 30.8004 90.564 36.8062 90.564 44.1872C90.5654 51.5675 84.5502 57.5734 77.1565 57.5734L77.1567 57.5736ZM75.0305 45.0256C75.3818 45.8814 76.2088 46.4 77.0818 46.4C77.3617 46.4 77.6465 46.3471 77.9215 46.2335C79.0546 45.7707 79.5967 44.478 79.1316 43.3476L76.2774 36.3971C76.5665 36.3646 76.8592 36.3449 77.1561 36.3449C81.4877 36.3449 85.0105 39.8622 85.0105 44.1866C85.0105 48.511 81.4875 52.0291 77.1561 52.0291C72.8251 52.0291 69.3024 48.511 69.3024 44.1866C69.3024 41.7411 70.4305 39.5552 72.1927 38.1159L75.0305 45.0256Z" fill="#EEE"/>
</svg>
