<svg width="85" height="95" viewBox="0 0 85 95" fill="none" xmlns="http://www.w3.org/2000/svg">
<path d="M64.8015 16.4951C64.4418 16.8562 64.2435 17.3373 64.2435 17.848C64.2435 18.3593 64.4411 18.8405 64.8015 19.2015C65.1724 19.5745 65.6592 19.7613 66.1467 19.7613C66.6336 19.7613 67.1218 19.5752 67.4919 19.2015C68.2344 18.4548 68.2344 17.2404 67.4919 16.4944C66.7739 15.7716 65.5196 15.7717 64.8015 16.4951Z" fill="#EEEEEE"/>
<path d="M83.093 15.2184L74.0907 12.0513C73.872 11.7079 73.6346 11.3798 73.3803 11.0645L74.6934 8.64809C75.4582 7.24117 75.3842 5.53925 74.5 4.20466C73.6157 2.87006 72.0876 2.14451 70.4971 2.31371L68.5505 2.51951C68.2949 2.54691 68.0351 2.48509 67.8164 2.34672L65.1973 0.670782C63.2877 -0.550006 60.7588 -0.0611228 59.4358 1.7848L58.2526 3.43756C58.1535 3.57733 58.0207 3.69464 57.8692 3.77681L56.1357 4.71804C54.9734 5.3488 54.1772 6.46211 53.9545 7.77132C53.731 9.08131 54.1116 10.3975 54.9986 11.3831L55.8654 12.3454C55.3318 13.2557 54.9162 14.2524 54.6606 15.3257L50.2694 33.7928L5.90504 33.7935C3.91659 33.7935 2.07475 34.7895 0.979589 36.4576C-0.11627 38.1258 -0.304853 40.2205 0.475313 42.0593L2.73269 47.3827C5.22197 53.2533 10.6545 57.2255 16.8734 57.8647V59.5294C16.8734 67.0445 22.4023 73.2861 29.5852 74.3543V75.016C29.5852 78.9115 32.3977 82.1531 36.0862 82.8127V87.3987H32.8279C32.0261 87.3987 31.2892 87.8384 30.9051 88.5464L29.1715 91.7423C28.5918 92.8106 28.983 94.148 30.0453 94.7303C30.3784 94.9136 30.7374 95 31.0923 95C31.8675 95 32.6191 94.5849 33.0165 93.8516L34.127 91.8033H46.4057C46.9505 91.8033 47.3933 92.2486 47.3933 92.7965C47.3933 94.013 48.3739 94.9992 49.5837 94.9992C50.7934 94.9992 51.774 94.013 51.774 92.7965C51.774 89.8196 49.3657 87.3979 46.4058 87.3979L40.4655 87.3986V82.8836C44.3789 82.4228 47.4262 79.0736 47.4262 75.0166V73.3442L55.4031 72.1606C68.777 70.1757 78.2451 58.4448 77.4279 44.8754L76.1589 23.8135L83.3333 20.5256C84.3963 20.0381 85.0501 18.9655 84.997 17.7911C84.9439 16.6167 84.1964 15.6063 83.093 15.2184ZM57.0398 8.30398C57.0754 8.09818 57.1976 7.71817 57.6243 7.48707L59.3579 6.54584C59.9236 6.2389 60.4209 5.79849 60.796 5.27519L61.9785 3.62384C62.3319 3.12864 63.0101 2.99799 63.5213 3.3253L66.1411 5.00194C66.9534 5.52102 67.9264 5.75282 68.8818 5.64957L70.8284 5.44377C71.4458 5.37704 71.7846 5.77531 71.8998 5.9495C72.0158 6.1237 72.2519 6.58799 71.9515 7.13868L71.0058 8.87854C69.3023 7.73362 67.2635 7.06276 65.0767 7.06276C62.32 7.06276 59.7783 8.11004 57.8612 9.86879L57.322 9.26964C56.9937 8.90931 57.0048 8.50977 57.0398 8.30398ZM54.7663 67.8015L44.9189 69.2632C43.8447 69.4233 43.0485 70.3505 43.0485 71.4427V75.0166C43.0485 76.9573 41.4777 78.537 39.5479 78.537H37.4686C35.5381 78.537 33.9673 76.9573 33.9673 75.0166V72.3145C33.9673 71.0979 32.9867 70.1117 31.777 70.1117C25.9751 70.1117 21.2556 65.365 21.2556 59.5306V55.7538C21.2556 54.5372 20.275 53.551 19.0653 53.551H18.6469C13.4624 53.551 8.79813 50.4521 6.76497 45.656L4.5076 40.3326C4.21705 39.6484 4.50201 39.0943 4.63751 38.8877C4.77301 38.6805 5.16903 38.2008 5.90799 38.2008H52.0013C53.0148 38.2008 53.8956 37.5019 54.1316 36.5101L58.9244 16.3527C59.6074 13.4786 62.138 11.4711 65.0762 11.4711C68.4141 11.4711 71.1877 14.096 71.3901 17.4471L73.0594 45.1423C73.7369 56.4118 65.8737 66.1538 54.7679 67.8028L54.7663 67.8015ZM75.9579 20.4469L75.7609 17.1793C75.7351 16.7502 75.6764 16.3308 75.6017 15.9171L81.3952 17.9548L75.9579 20.4469Z" fill="#EEEEEE"/>
<path d="M56.8431 42.9029C55.6334 42.9029 54.6528 43.8891 54.6528 45.1056V48.9393C54.6528 54.3662 50.263 58.7814 44.8663 58.7814H41.2554C37.4426 58.7814 34.34 55.6619 34.34 51.8268C34.34 50.6103 33.3594 49.6241 32.1497 49.6241H31.6182C27.2046 49.6241 23.2633 46.9739 21.5759 42.8732C21.1129 41.7487 19.8319 41.2155 18.7144 41.6799C17.5969 42.1448 17.0654 43.4331 17.5277 44.5576C19.7075 49.8559 24.5688 53.4276 30.1592 53.96C31.1552 59.2078 35.7523 63.1862 41.2548 63.1862H44.8657C52.6772 63.1862 59.0329 56.795 59.0329 48.9387V45.105C59.0336 43.8891 58.0528 42.9029 56.8431 42.9029Z" fill="#EEEEEE"/>
</svg>
