<svg width="94" height="95" viewBox="0 0 94 95" fill="none" xmlns="http://www.w3.org/2000/svg">
<path d="M92.9876 5.16478L89.3856 1.51789C88.2372 0.350916 86.4144 0.153798 85.0512 1.05251L84.3386 1.52428L83.298 0.46617C82.6798 -0.15218 81.6828 -0.158592 81.0646 0.46617C80.4464 1.08452 80.4464 2.09851 81.0646 2.71679L81.6384 3.30313L78.8875 5.12049L77.323 3.53938C76.7111 2.91462 75.7141 2.91462 75.096 3.53297C74.4779 4.15774 74.4779 5.16531 75.0897 5.79015L76.1874 6.89948L73.4301 8.71043L72.1557 7.41608C71.5376 6.79131 70.5406 6.79131 69.9223 7.40967C69.3041 8.03444 69.3041 9.04201 69.916 9.66685L70.7299 10.4894L70.4271 10.6936C68.1557 12.1858 67.0208 14.9909 67.6009 17.6621L67.6199 17.7574L44.0202 41.679C43.295 40.1107 43.5661 38.1851 44.8405 36.8845L49.4903 32.1796C51.3892 30.2478 51.3892 27.1175 49.4903 25.1855C48.4306 24.1146 46.9731 23.598 45.4904 23.7702L43.5724 23.9872C35.7056 24.8795 29.3906 30.7642 27.8515 38.6256C27.5107 40.3661 26.6778 41.9408 25.4414 43.1968C23.9649 44.6953 22.0034 45.6068 19.9277 45.7791L16.1299 46.0851C12.4263 46.3783 8.94469 48.0105 6.31976 50.669L4.56587 52.4479C1.98546 55.0687 0.383606 58.5433 0.0618659 62.235C-0.347907 66.9085 1.2919 71.4989 4.56587 74.8142L19.9023 90.3649C22.8546 93.3485 26.8101 95 30.9361 95C31.3966 95 31.8634 94.9808 32.3302 94.936C35.9703 94.6108 39.402 92.9848 41.9889 90.3648L43.7428 88.5859C46.3605 85.9274 47.9694 82.4016 48.2659 78.6523L48.5623 74.8012C48.7327 72.6907 49.6347 70.7019 51.1112 69.2034C52.3476 67.9475 53.9058 67.1056 55.6152 66.7613C58.5929 66.1622 61.0718 63.9875 62.0816 61.0873L64.0938 55.3301C64.6867 53.6344 64.2579 51.7153 63.0025 50.4465C62.1259 49.5606 60.9585 49.0696 59.7222 49.0696C58.4795 49.0696 57.3121 49.5606 56.4356 50.4465L55.8927 51.0015C55.1041 51.7985 54.0636 52.2318 52.9531 52.2318C52.1392 52.2318 51.3632 51.9956 50.6944 51.5558L76.7491 25.1423C77.4806 24.403 78.7424 24.403 79.4746 25.1423C79.935 25.6141 80.5722 25.8439 81.2285 25.7927C81.8783 25.735 82.4712 25.3913 82.8436 24.8491L93.3726 9.6493C94.3379 8.25177 94.1738 6.37111 92.9874 5.16647L92.9876 5.16478ZM52.953 56.6931C55.2427 56.6931 57.3945 55.7944 59.016 54.1492L59.5652 53.5941C59.6532 53.5052 59.7926 53.5052 59.8743 53.5941C59.9376 53.6582 59.9623 53.7535 59.9313 53.8425L57.919 59.5997C57.4269 61.0215 56.2095 62.0924 54.7521 62.3863C52.178 62.9029 49.844 64.1716 47.9892 66.0523C45.7686 68.2965 44.4124 71.2802 44.166 74.4489L43.8633 78.3C43.6485 80.9905 42.5009 83.5215 40.6147 85.4342L38.8608 87.2131C37.0062 89.0874 34.5518 90.2543 31.9402 90.4898C28.6345 90.783 25.3859 89.5911 23.0321 87.2131L7.69489 71.6632C5.34177 69.2787 4.16169 65.9826 4.45892 62.6226C4.69268 59.9771 5.84035 57.4773 7.69489 55.5966L9.44878 53.8177C11.3287 51.9114 13.8268 50.7444 16.4762 50.528L20.274 50.2221C23.4029 49.9737 26.3489 48.5961 28.5695 46.3455C30.4241 44.4712 31.6732 42.0994 32.1844 39.4916C33.3454 33.5429 38.1206 29.0927 44.0637 28.4167L45.9817 28.1996C46.1204 28.1868 46.2591 28.2381 46.3605 28.3398C46.5499 28.5248 46.5499 28.8372 46.3605 29.0222L41.7107 33.7335C38.7078 36.7811 38.4176 41.5373 40.8151 44.9294L35.5225 50.2975C34.6642 51.1649 34.6642 52.5738 35.5225 53.4469L40.6137 58.605C41.0299 59.0256 41.5917 59.2618 42.1782 59.2618C42.7647 59.2618 43.3266 59.0256 43.7427 58.605L47.5468 54.7476C49.067 56.0113 50.9599 56.6931 52.953 56.6931ZM80.428 20.5502C79.7028 20.257 78.9206 20.1041 78.1129 20.1041C76.4161 20.1041 74.8263 20.7737 73.6271 21.9911L42.1777 53.8695L40.2035 51.8743L71.6024 20.0469C72.1326 19.5111 72.353 18.7333 72.1953 17.9939L71.9179 16.7123C71.7285 15.8385 72.1009 14.9206 72.8388 14.4297L86.8121 5.22336L89.2975 7.74795L80.428 20.5502Z" fill="#EEEEEE"/>
<path d="M36.109 82.6855C36.109 83.7663 35.2451 84.643 34.1784 84.643C33.1124 84.643 32.2485 83.7663 32.2485 82.6855C32.2485 81.6046 33.1124 80.7287 34.1784 80.7287C35.2451 80.7287 36.109 81.6046 36.109 82.6855Z" fill="#EEEEEE"/>
<path d="M28.4936 82.0679C28.4936 83.1452 27.6233 84.0254 26.5566 84.0254C25.497 84.0254 24.626 83.1459 24.626 82.0679C24.626 80.9906 25.4963 80.1104 26.5566 80.1104C27.6233 80.1104 28.4936 80.9906 28.4936 82.0679Z" fill="#EEEEEE"/>
<path d="M33.8307 55.1789C33.2153 54.5549 32.2162 54.5549 31.6008 55.1754C30.9833 55.7973 30.9826 56.8063 31.5973 57.4289L36.6864 62.5885C36.9941 62.9008 37.3989 63.0574 37.8038 63.0574C38.2072 63.0574 38.6093 62.9023 38.9169 62.5927C39.5344 61.9708 39.5351 60.9618 38.9205 60.3392L33.8307 55.1789Z" fill="#EEEEEE"/>
<path d="M33.1403 66.1852C33.448 66.4975 33.8529 66.6541 34.2577 66.6541C34.6612 66.6541 35.0632 66.499 35.3709 66.1894C35.9884 65.5675 35.9891 64.5585 35.3744 63.9359L30.2853 58.7763C29.6699 58.1523 28.6708 58.1523 28.0555 58.7728C27.438 59.3947 27.4373 60.4037 28.052 61.0263L33.1403 66.1852Z" fill="#EEEEEE"/>
<path d="M33.0899 70.282L24.024 61.0914C23.4326 60.4915 22.3813 60.4915 21.7898 61.0914L17.947 64.9873C17.333 65.6092 17.333 66.6154 17.947 67.2374L27.0128 76.428C27.3085 76.7283 27.7106 76.8969 28.1302 76.8969C28.5499 76.8969 28.9519 76.7283 29.2476 76.428L33.0905 72.5321C33.7037 71.9102 33.7038 70.9033 33.0899 70.282ZM28.1302 73.0451L21.2914 66.1121L22.9073 64.4741L29.7461 71.407L28.1302 73.0451Z" fill="#EEEEEE"/>
</svg>
