<svg width="95" height="63" viewBox="0 0 95 63" fill="none" xmlns="http://www.w3.org/2000/svg">
<path d="M31.036 27.5302C30.5492 26.7993 29.562 26.6001 28.8293 27.0843C28.0966 27.5699 27.8962 28.5546 28.3823 29.2856L36.1033 40.8959C36.4096 41.3567 36.9156 41.6062 37.4316 41.6062C37.7343 41.6062 38.0399 41.5204 38.31 41.3411C39.0427 40.8562 39.2431 39.8714 38.757 39.1398L31.036 27.5302Z" fill="#EEEEEE"/>
<path d="M42.5817 22.7208C42.0949 21.9906 41.1077 21.7907 40.375 22.2749C39.6423 22.7598 39.4419 23.7452 39.928 24.4761L52.6217 43.565C52.9273 44.0258 53.4333 44.2753 53.9493 44.2753C54.252 44.2753 54.5576 44.1896 54.8277 44.0102C55.5597 43.5253 55.7608 42.5406 55.274 41.8089L42.5817 22.7208Z" fill="#EEEEEE"/>
<path d="M55.2736 19.641C54.7882 18.9101 53.7989 18.7108 53.0669 19.195C52.3349 19.6807 52.1338 20.6654 52.6206 21.3963L67.14 43.2292C67.4456 43.69 67.9516 43.9396 68.4676 43.9396C68.7703 43.9396 69.0759 43.8538 69.346 43.6745C70.078 43.1895 70.2791 42.2048 69.7923 41.4732L55.2736 19.641Z" fill="#EEEEEE"/>
<path d="M90.2163 22.1056C86.0836 18.4531 79.8303 15.4103 73.1634 13.5366L55.416 0.432708C54.6393 -0.132316 53.5881 -0.145074 52.8049 0.400808C48.3154 3.55778 37.5413 7.94669 28.671 9.45249C27.7862 9.60491 27.0727 10.272 26.8751 11.1483C26.6711 12.0245 27.0151 12.9334 27.7478 13.4537L32.7213 16.9983C28.4421 18.8849 24.3031 21.2477 20.2721 24.1253L6.77894 9.83956C5.55654 8.53724 3.6902 8.2324 2.14956 9.07107C0.487264 9.97285 -0.340056 11.9295 0.13116 13.8288L2.80544 24.5699C4.00864 29.4225 4.00864 34.5488 2.80544 39.4023L0.13116 50.1369C-0.340019 52.0362 0.487919 53.9992 2.14956 54.901C2.72878 55.2122 3.35276 55.371 3.97111 55.371C5.00304 55.371 6.01498 54.9456 6.77912 54.1325L20.2723 39.8467C22.1762 41.1994 24.1057 42.4385 26.0607 43.5757L20.3554 49.3245C19.725 49.9597 19.5402 50.9125 19.8842 51.7448C20.2282 52.5707 21.0434 53.1102 21.941 53.1102C27.5769 53.1102 35.1221 56.1084 37.6125 58.5917C38.0261 59.0043 38.5932 59.2397 39.1852 59.2397H39.23C39.8348 59.2269 40.4083 58.9731 40.8219 58.5279L47.4377 51.4201C49.3289 51.7505 51.252 52.0043 53.2007 52.1695L53.6399 60.8908C53.6783 61.6976 54.1623 62.4214 54.8879 62.7774C55.1999 62.9298 55.5311 63 55.8686 63C56.3142 63 56.7662 62.8667 57.1486 62.6002L74.4944 50.4044C80.7094 48.759 86.7715 46.0912 90.9802 42.3055C93.5082 40.0313 94.9665 36.7602 94.9857 33.3241C95.1769 29.0301 93.4379 24.9447 90.2163 22.1056ZM17.7765 36.0042L4.83061 49.7121L7.12975 40.4697C8.51134 34.918 8.51134 29.0487 7.12975 23.5036L4.83698 14.2611L17.7765 27.9627V36.0042ZM54.0091 4.92996L63.1656 11.6882C61.9176 11.5804 60.6889 11.5166 59.4851 11.5166C51.7486 11.5166 44.4824 12.7048 37.5799 15.0925C37.4591 14.9528 37.3319 14.8195 37.1727 14.7047L34.4344 12.7544C41.4837 10.9516 49.2269 7.87768 54.0091 4.92996ZM38.9752 53.9733C35.9057 51.8266 31.2321 50.0032 26.7876 49.1582L30.1498 45.7661C34.0976 47.7163 38.167 49.2341 42.3758 50.3267L38.9752 53.9733ZM57.8875 56.6353L57.6771 52.4179C58.2755 52.4371 58.8803 52.4562 59.4858 52.4562C60.9569 52.4562 62.5296 52.3796 64.1599 52.2336L57.8875 56.6353ZM90.5287 33.2652C90.5287 33.5701 90.5031 33.8685 90.4711 34.1734L83.6067 36.7398C82.7851 37.051 82.3651 37.9655 82.6771 38.7851C82.913 39.4267 83.5242 39.8145 84.1674 39.8145C84.3522 39.8145 84.5433 39.7826 84.7274 39.7131L88.7457 38.2137C88.5161 38.4867 88.2681 38.7603 88.0008 39.0014C86.1289 40.678 83.7601 42.1327 81.1171 43.3529C76.5388 40.113 73.743 34.7903 73.743 29.1493C73.743 28.2731 73.0295 27.5613 72.1511 27.5613C71.2727 27.5613 70.5591 28.2731 70.5591 29.1493C70.5591 35.1582 73.2463 40.8623 77.742 44.7309C71.775 46.8968 64.9937 48.0084 59.4865 48.0084C45.7006 48.0084 33.506 43.9874 22.235 35.7551V28.2156C33.5058 19.9835 45.7012 15.9623 59.4865 15.9623C69.1973 15.9623 81.1442 20.0338 87.2682 25.433C89.4842 27.3896 90.6753 30.2034 90.5288 33.1569L90.5287 33.2652Z" fill="#EEEEEE"/>
<path d="M82.8606 32.3941C83.2678 32.3941 83.6751 32.2388 83.9863 31.929C84.6082 31.3087 84.6082 30.3027 83.9863 29.6831L83.2089 28.9075L83.9863 28.132C84.6082 27.5124 84.6082 26.5064 83.9863 25.8868C83.3645 25.2665 82.3567 25.2665 81.7356 25.8868L80.9581 26.6624L80.1806 25.8868C79.5588 25.2665 78.551 25.2665 77.9299 25.8868C77.3081 26.5064 77.3081 27.5124 77.9299 28.132L78.7074 28.9075L77.9299 29.6831C77.3081 30.3027 77.3081 31.3087 77.9299 31.929C78.2405 32.2388 78.6484 32.3941 79.0556 32.3941C79.4629 32.3941 79.8701 32.2388 80.1814 31.929L80.9589 31.1534L81.7363 31.929C82.0455 32.2388 82.4534 32.3941 82.8606 32.3941Z" fill="#EEEEEE"/>
</svg>
