<svg width="88" height="88" viewBox="0 0 88 88" fill="none" xmlns="http://www.w3.org/2000/svg">
<path d="M87.9985 43.996C87.9985 42.4953 87.9249 40.9988 87.7796 39.5487V39.5459C87.1518 33.3117 85.2415 27.4065 82.107 21.9919C82.0958 21.9708 82.0867 21.9477 82.0748 21.9266C75.8185 11.1638 65.2815 3.5192 53.1676 0.954483H53.1662C47.1793 -0.318161 40.8214 -0.318161 34.8316 0.954483H34.8302C22.7078 3.52154 12.1693 11.1694 5.92308 21.9356L5.92238 21.937C2.76838 27.3678 0.848897 33.292 0.218888 39.5472V39.55C0.0736711 41.003 0 42.4994 0 43.9973C0 54.8324 3.97276 65.2425 11.1859 73.3084L11.188 73.3105C15.3691 77.9949 20.3914 81.6635 26.1144 84.2144L26.1173 84.2151C31.7548 86.7266 37.7719 88 44 88C50.228 88 56.246 86.7267 61.8834 84.2151L61.8862 84.2144C67.6085 81.6635 72.6316 77.9949 76.8126 73.3105C76.8155 73.3077 76.8169 73.3042 76.8197 73.3014C84.0294 65.2362 88 54.8293 88 43.9975L87.9985 43.996ZM74.1699 69.6432H65.6772L58.2669 60.5866L64.869 40.2681L76.4884 35.8181L83.4848 40.9493C83.5599 41.9497 83.5971 42.9713 83.5971 43.9948C83.5985 53.4232 80.2577 62.4902 74.1699 69.642V69.6432ZM33.7868 58.8502L27.4772 39.4298L43.999 27.4295L60.5152 39.4305L54.2048 58.8491L33.7868 58.8502ZM80.5993 28.8368C81.4012 30.7675 82.0466 32.755 82.5292 34.7903L79.4074 32.5003L80.5993 28.8368ZM77.7729 23.3035L75.0558 31.6542L63.4294 36.1063L46.1984 23.5883V10.7129L53.2158 5.47285C63.3992 7.89891 72.2612 14.334 77.7729 23.3035ZM47.1435 4.51526L43.9992 6.86266L40.8556 4.51454C42.944 4.35107 45.0535 4.35109 47.1435 4.51526ZM34.7825 5.4722L41.7991 10.7123V23.5876L24.5639 36.1064L12.9423 31.6535L10.2252 23.3047C15.7294 14.3352 24.5924 7.8997 34.7825 5.4722ZM7.39827 28.8367L8.59087 32.5009L5.46686 34.7908C5.95022 32.7549 6.59499 30.7681 7.39827 28.8367ZM4.51079 40.9487L11.5078 35.8167L23.1224 40.266L29.7238 60.5844L22.3199 69.6396H13.8279C7.73935 62.4885 4.39929 53.4199 4.39929 43.9924C4.39859 42.973 4.43643 41.9512 4.51079 40.9487ZM21.8043 74.0422L23.0649 77.6244C21.3518 76.5573 19.7263 75.361 18.1949 74.0422H21.8043ZM28.7649 80.5627L25.8487 72.2778L33.2315 63.2492H54.761L62.1489 72.2785L59.2334 80.5627C54.4117 82.5762 49.2914 83.5963 43.999 83.5963C38.7066 83.5963 33.5866 82.5762 28.7649 80.5627ZM64.9312 77.6245L66.1918 74.0424H69.802C68.2705 75.362 66.645 76.5575 64.9312 77.6245Z" fill="#EEEEEE"/>
</svg>
