<svg width="63" height="96" viewBox="0 0 63 96" fill="none" xmlns="http://www.w3.org/2000/svg">
<path d="M62.754 20.11C62.5317 19.7516 62.1788 19.4983 61.7734 19.406L53.3286 17.487C52.4815 17.2952 51.6477 17.8412 51.461 18.704L49.843 26.1657L51.9776 6.78709C52.0237 6.36496 51.9049 5.94068 51.6463 5.60798C51.387 5.27529 51.0096 5.06207 50.5972 5.01413L42.0014 4.02247C41.1375 3.9223 40.3673 4.55551 40.2702 5.43554L39.7383 10.26L39.739 1.60267C39.739 0.717631 39.038 0 38.1734 0H29.5237C28.6592 0 27.9582 0.717631 27.9582 1.60267V10.8194L26.8532 10.8981L27.3061 6.78832C27.3522 6.36618 27.2334 5.94191 26.9748 5.60921C26.7155 5.27651 26.3381 5.06329 25.9258 5.01536L17.3306 4.0237C16.4654 3.92496 15.6959 4.55745 15.5994 5.43676L13.3908 25.4876L12.3467 15.5926C12.3019 15.1704 12.0958 14.7827 11.7722 14.5165C11.4486 14.2489 11.0355 14.1237 10.6225 14.1716L2.02252 15.1225C1.16286 15.2177 0.541544 16.0076 0.634493 16.8883L2.76131 37.0435H2.1917C1.57457 37.0435 0.985391 37.3104 0.570243 37.7783C0.155095 38.2455 -0.0482825 38.8709 0.00972329 39.5005L4.74752 90.5223C4.83978 91.5168 5.56315 92.3282 6.52135 92.5142L18.2113 94.7823C22.3767 95.5908 26.64 96 30.8831 96C35.1255 96 39.3888 95.59 43.5542 94.7823L55.2448 92.5142C56.2037 92.3282 56.9271 91.5161 57.0186 90.5223L61.7559 39.5005C61.8139 38.8716 61.6112 38.2462 61.1947 37.7783C60.7795 37.3111 60.1911 37.0435 59.5732 37.0435H59.5537L62.9637 21.3201C63.0524 20.9044 62.977 20.4692 62.754 20.11ZM57.162 41.5291L52.8085 88.4169L42.7366 90.3716C34.9418 91.8841 26.8204 91.8841 19.0261 90.3716L8.95493 88.4169L4.60073 41.5291H12.9058C13.198 50.552 20.4597 57.8005 29.3434 57.8005H32.4192C41.3036 57.8005 48.5653 50.552 48.8575 41.5291H57.162ZM9.40115 17.5293L11.4594 37.0416H5.90882L3.91422 18.1355L9.40115 17.5293ZM21.2644 31.4711L26.0554 31.2622L26.9632 53.0695C25.1495 52.6967 23.4897 51.8976 22.0682 50.7921L21.2644 31.4711ZM37.7558 52.0219C36.249 52.7868 34.5689 53.2375 32.7894 53.2933L34.5325 37.4719L39.2983 38.0214L37.7558 52.0219ZM32.2442 34.3989C31.8955 34.6543 31.6481 35.0493 31.5956 35.5201L29.9791 50.2017L29.118 29.5244C29.0803 28.6401 28.3331 27.9411 27.4875 27.9919L26.2797 28.0441L25.3362 14.2175L30.8416 13.824L32.2442 34.3989ZM50.6926 37.0405L54.1787 20.9623L59.5665 22.1865L56.346 37.0399L50.6926 37.0405ZM43.2066 7.38646L48.6909 8.01894L45.4521 37.4239C44.8678 37.8274 44.4834 38.5107 44.4834 39.2855V40.9641C44.4834 44.2331 43.2282 47.2009 41.195 49.4117L42.5851 36.7885C42.6313 36.3664 42.5125 35.9421 42.2539 35.6094C41.9946 35.2767 41.6172 35.0635 41.2048 35.0155L40.1767 34.8968L43.2066 7.38646ZM31.0896 3.20375H36.6082V34.4861L35.3803 34.3444L33.8574 12.0023C33.8287 11.578 33.6358 11.183 33.3227 10.904C33.0089 10.625 32.6007 10.4869 32.187 10.5148L31.0897 10.5928L31.0896 3.20375ZM18.5359 7.38646L24.0194 8.01894L23.6777 11.1234L23.5582 11.1319C22.695 11.1935 22.045 11.9597 22.1051 12.8426L22.6342 20.6027L21.792 28.2397L19.5673 28.3363C18.7035 28.3742 18.0332 29.1219 18.0703 30.0055L18.7734 46.9037C17.8236 45.1393 17.2805 43.1159 17.2805 40.9637V39.2852C17.2805 38.109 16.3929 37.1545 15.2669 37.0602L18.5359 7.38646Z" fill="#EEEEEE"/>
<path d="M25.5225 74.0533C25.5225 77.0777 27.9261 79.5381 30.8803 79.5381C33.8344 79.5381 36.238 77.0775 36.238 74.0533C36.238 71.0291 33.8344 68.5677 30.8803 68.5677C27.9261 68.5677 25.5225 71.0291 25.5225 74.0533ZM33.1071 74.0533C33.1071 75.3104 32.1084 76.3327 30.8805 76.3327C29.6525 76.3327 28.6538 75.3103 28.6538 74.0533C28.6538 72.7962 29.6525 71.7731 30.8805 71.7731C32.1084 71.7731 33.1071 72.7962 33.1071 74.0533Z" fill="#EEEEEE"/>
<path d="M43.64 63.1423H18.1224C17.2579 63.1423 16.5569 63.8599 16.5569 64.7449V83.3616C16.5569 84.2466 17.2579 84.9643 18.1224 84.9643H43.64C44.5045 84.9643 45.2055 84.2466 45.2055 83.3616V64.7449C45.2055 63.8599 44.5038 63.1423 43.64 63.1423ZM42.0744 81.7589H19.688V66.3474H42.0744V81.7589Z" fill="#EEEEEE"/>
</svg>
