<svg width="89" height="80" viewBox="0 0 89 80" fill="none" xmlns="http://www.w3.org/2000/svg">
<path d="M33.9921 14.3404C35.133 14.3404 36.0611 13.4196 36.0611 12.2885C36.0611 11.1568 35.1331 10.2361 33.9921 10.2361C32.852 10.2361 31.9232 11.1568 31.9232 12.2885C31.9232 13.4201 32.8512 14.3404 33.9921 14.3404Z" fill="#EEEEEE"/>
<path d="M22.9962 25.1128C24.1363 25.1128 25.0651 24.192 25.0651 23.0604C25.0651 21.9287 24.1371 21.0085 22.9962 21.0085C21.8553 21.0085 20.9272 21.9293 20.9272 23.0604C20.9265 24.1921 21.8553 25.1128 22.9962 25.1128Z" fill="#EEEEEE"/>
<path d="M44.4996 25.1128C45.6404 25.1128 46.5685 24.192 46.5685 23.0604C46.5685 21.9287 45.6405 21.0085 44.4996 21.0085C43.3594 21.0085 42.4306 21.9293 42.4306 23.0604C42.4306 24.1921 43.3594 25.1128 44.4996 25.1128Z" fill="#EEEEEE"/>
<path d="M55.0068 14.3404C56.147 14.3404 57.0758 13.4196 57.0758 12.2885C57.0758 11.1568 56.1478 10.2361 55.0068 10.2361C53.8667 10.2361 52.9379 11.1568 52.9379 12.2885C52.9379 13.4201 53.8666 14.3404 55.0068 14.3404Z" fill="#EEEEEE"/>
<path d="M66.0028 25.1128C67.1437 25.1128 68.0718 24.192 68.0718 23.0604C68.0718 21.9287 67.1437 21.0085 66.0028 21.0085C64.8619 21.0085 63.9338 21.9293 63.9338 23.0604C63.9345 24.1921 64.8619 25.1128 66.0028 25.1128Z" fill="#EEEEEE"/>
<path d="M88.9991 50.2239C88.9991 45.9424 86.1888 42.3047 82.2973 40.9937C82.7372 40.0933 82.9912 39.0884 82.9912 38.0227C82.9912 36.4971 82.4797 35.0914 81.6247 33.9514C81.7737 33.8035 81.9142 33.6473 82.044 33.4826C83.0969 32.1526 83.4439 30.3698 82.9962 28.5913C78.7547 11.7566 63.5798 0 46.0906 0H42.9072C25.4188 0 10.2427 11.7571 6.00157 28.5913C5.55316 30.3691 5.90083 32.1526 6.95372 33.4826C7.08356 33.6465 7.22263 33.8014 7.3702 33.9472C6.51456 35.0873 6.00087 36.495 6.00087 38.022C6.00087 39.0886 6.25486 40.0949 6.69546 40.9952C2.8082 42.3098 0 45.9524 0 50.2604C0 53.6129 1.72124 56.5741 4.33571 58.3316C3.79082 59.2026 3.47084 60.2243 3.47084 61.3224V63.9158C3.47084 67.3824 6.00296 70.2912 9.40291 71.0886C13.1156 76.464 19.3635 80 26.4344 80H62.5663C69.6294 80 75.8722 76.4703 79.5864 71.0915C82.9927 70.2975 85.5306 67.3867 85.5306 63.9166V61.3231C85.5306 60.225 85.2099 59.202 84.665 58.3309C87.2789 56.5699 88.9991 53.5986 88.9991 50.2239ZM79.7757 60.0183C80.4938 60.0183 81.0791 60.6034 81.0791 61.3224V63.9158C81.0791 65.571 79.5757 66.917 77.7267 66.917C77.3755 66.917 77.0272 66.8673 76.6909 66.7692L70.7637 65.046C69.2333 64.6018 67.6596 64.3789 66.086 64.3789C64.5116 64.3789 62.9372 64.6011 61.4068 65.046L58.7158 65.8288C56.4766 66.4777 54.1098 66.4784 51.8719 65.8288L49.1794 65.046C46.1193 64.1568 42.8834 64.1568 39.8225 65.046L37.1315 65.8288C34.8923 66.4777 32.5255 66.4784 30.2876 65.8288L27.5951 65.046C24.5357 64.1568 21.2998 64.1568 18.2382 65.046L12.3096 66.7699C11.974 66.8673 11.6257 66.917 11.2745 66.917C9.42546 66.917 7.9221 65.5702 7.9221 63.9158V61.3224C7.9221 60.6027 8.50601 60.0183 9.22545 60.0183H79.7757ZM10.4509 38.0232C10.4509 36.67 11.5548 35.5691 12.9129 35.5691H41.8231L46.7689 40.4778L12.9129 40.4771C11.5556 40.4771 10.4509 39.3757 10.4509 38.0232ZM76.0796 35.5684C77.4368 35.5684 78.5408 36.67 78.5408 38.0225C78.5408 39.3756 77.4369 40.4765 76.0796 40.4765H67.3762L72.322 35.5679L76.0796 35.5684ZM57.0719 44.4728L48.101 35.5684H66.0441L57.0719 44.4728ZM9.88054 44.8617H12.6929C12.7667 44.8645 12.8384 44.873 12.9129 44.873H51.1988L55.4969 49.1383C55.9148 49.5525 56.4824 49.7858 57.0742 49.7858C57.6659 49.7858 58.2335 49.5532 58.6514 49.1383L62.9495 44.873H76.0816C76.1561 44.873 76.2277 44.8638 76.3015 44.8617H79.1217C82.1157 44.8617 84.5515 47.2674 84.5515 50.2618C84.5515 53.2188 82.1159 55.6247 79.1217 55.6247H9.88218C6.88817 55.6247 4.45177 53.219 4.45177 50.2246C4.45177 47.2668 6.88744 44.8617 9.88218 44.8617H9.88054ZM10.3204 29.6528C14.0673 14.781 27.4682 4.39459 42.9087 4.39459H46.0921C61.5322 4.39459 74.9333 14.781 78.6785 29.6528C78.7956 30.116 78.7452 30.5154 78.5387 30.7768C78.3365 31.0326 77.9662 31.1734 77.4951 31.1734H11.5029C11.0325 31.1734 10.6621 31.0319 10.4592 30.7768C10.2527 30.5154 10.203 30.116 10.3194 29.6528H10.3204ZM62.5647 75.6056H26.4329C21.8396 75.6056 17.6912 73.6995 14.7475 70.6422L19.4912 69.2631C21.7303 68.6135 24.0971 68.6128 26.3357 69.2631L29.0282 70.0458C32.0883 70.9351 35.3243 70.9351 38.3851 70.0458L41.0762 69.2631C43.3146 68.6135 45.6822 68.6128 47.92 69.2631L50.6125 70.0458C53.6726 70.9351 56.9086 70.9351 59.9694 70.0458L62.6605 69.2631C64.8996 68.6135 67.2664 68.6135 69.505 69.2631L74.2543 70.6436C71.3114 73.6973 67.1607 75.6056 62.5647 75.6056Z" fill="#EEEEEE"/>
</svg>
