<svg width="66" height="94" viewBox="0 0 66 94" fill="none" xmlns="http://www.w3.org/2000/svg">
<path d="M65.9993 52.0874C65.9993 48.4491 62.4306 45.488 58.0396 45.488C55.9866 45.488 54.1232 46.1399 52.7082 47.1963C50.7624 45.9562 48.4569 45.2344 46.0056 45.2344H29.4306C29.5631 44.678 29.6329 44.1081 29.6329 43.5198C29.6329 42.0262 29.1909 40.6025 28.3822 39.407C29.1909 38.2114 29.6329 36.7878 29.6329 35.2878C29.6329 33.2378 28.7798 31.3332 27.3584 29.9732C28.9059 27.8094 29.7336 25.2847 29.7336 22.6458C29.7336 19.9377 28.8559 17.4194 27.3458 15.3122C27.668 13.8694 27.8323 12.313 27.8323 10.7884C27.8323 5.5938 26.0007 0 21.9701 0C18.3189 0 16.4745 4.58105 16.1587 9.30113C15.8238 9.28206 15.4953 9.26299 15.154 9.26299C14.8191 9.26299 14.4906 9.28206 14.1557 9.30113C13.8399 4.58105 11.9955 0 8.3443 0C4.31444 0 2.48215 5.59362 2.48215 10.7884C2.48215 12.3131 2.64643 13.8703 2.96862 15.3122C1.45917 17.4194 0.580801 19.9377 0.580801 22.6458C0.580801 25.6703 1.70531 28.5869 3.72665 30.9286C2.81084 32.175 2.29898 33.6877 2.29898 35.2878C2.29898 36.7878 2.74103 38.2115 3.54969 39.407C2.74103 40.6026 2.29898 42.0262 2.29898 43.5198C2.29898 44.5636 2.52036 45.5826 2.93703 46.519C1.14276 47.8791 0 50.0436 0 52.3974C0 54.0866 0.568238 55.6811 1.57924 56.9593C0.568238 58.2311 0 59.8256 0 61.5212C0 64.1848 1.45938 66.5641 3.63857 67.8549C3.65761 72.8223 5.16071 77.365 7.6374 80.0478V89.2289C7.6374 91.861 9.77217 94 12.4006 94H13.4489C16.0766 94 18.2121 91.8617 18.2121 89.2289V80.0478C18.4462 79.795 18.6668 79.5225 18.8819 79.2378C19.0969 79.5224 19.3176 79.7943 19.5516 80.0478V89.2289C19.5516 91.861 21.6864 94 24.3148 94H25.3632C27.9909 94 30.1263 91.8617 30.1263 89.2289V80.0478C31.3834 78.6877 32.4008 76.8333 33.0951 74.6569H33.2911C33.9799 76.8078 34.9902 78.6752 36.2599 80.0478V89.2289C36.2599 91.861 38.3947 94 41.0231 94H42.0715C44.6991 94 46.8346 91.8617 46.8346 89.2289V80.0478C47.1188 79.7442 47.3846 79.4087 47.6369 79.0606C47.8957 79.4088 48.1615 79.7442 48.4393 80.0478V89.2289C48.4393 91.861 50.5804 94 53.2088 94H54.2571C56.8783 94 59.0203 91.8617 59.0203 89.2289V80.0478C61.5027 77.346 63.0191 72.7587 63.0191 67.7538C63.0191 64.1664 62.2485 60.8382 60.9154 58.2437C63.8898 57.2819 65.9993 54.8902 65.9993 52.0874ZM21.97 4.59917C22.5256 5.29547 23.4104 7.44018 23.4104 10.7874C23.4104 11.072 23.3977 11.3382 23.385 11.6037C22.5009 11.0529 21.547 10.5847 20.5424 10.2182C20.6369 7.20001 21.4455 5.2574 21.97 4.59917ZM8.34416 4.59917C8.86868 5.25733 9.67734 7.2001 9.77183 10.2176C8.76718 10.5848 7.81321 11.053 6.92919 11.6031C6.9165 11.3376 6.90381 11.0713 6.90381 10.7868C6.90381 7.44009 7.78859 5.29555 8.34416 4.59917ZM14.5539 77.4404L13.7897 78.105V89.2287C13.7897 89.4187 13.6381 89.5705 13.4484 89.5705H12.4001C12.2104 89.5705 12.0589 89.4187 12.0589 89.2287V78.105L11.2883 77.4404C10.701 76.9278 10.113 76.1305 9.60187 75.0932C11.0612 75.9413 12.716 76.3968 14.4468 76.3968H15.4761C15.1793 76.8198 14.8698 77.1679 14.5539 77.4404ZM43.177 77.4404L42.4128 78.105V89.2287C42.4128 89.4187 42.2612 89.5705 42.0715 89.5705L41.0225 89.5698C40.8328 89.5698 40.6812 89.418 40.6812 89.228V78.1043L39.9107 77.4397C39.2472 76.8578 38.5775 75.9087 38.0219 74.656H45.0714C44.5159 75.9088 43.846 76.858 43.177 77.4404ZM55.3619 77.4404C54.8754 77.8578 54.5977 78.4715 54.5977 79.1169V89.2281C54.5977 89.4181 54.4461 89.5699 54.2564 89.5699H53.2081C53.0184 89.5699 52.8605 89.4181 52.8605 89.2281V79.1169C52.8605 78.4715 52.5827 77.8578 52.0962 77.4404C50.8773 76.384 49.8664 74.3841 49.3171 71.9547C49.0894 70.9421 48.1926 70.2274 47.1632 70.2274L31.4082 70.2267C30.3725 70.2267 29.4813 70.9414 29.2543 71.954C28.7043 74.384 27.6941 76.3832 26.4752 77.4397C25.9887 77.8571 25.7046 78.4708 25.7046 79.1162V89.2274C25.7046 89.4174 25.553 89.5692 25.3634 89.5692H24.315C24.1253 89.5692 23.9738 89.4174 23.9738 89.2274V79.1162C23.9738 78.4708 23.696 77.8571 23.2095 77.4397C22.2683 76.6297 21.4343 75.2188 20.8533 73.4788C20.5501 72.5741 19.7098 71.9668 18.7559 71.9668H14.4475C13.0262 71.9668 11.693 71.4104 10.6891 70.4104C9.68446 69.4041 9.13524 68.0631 9.13524 66.6458C9.13524 65.494 8.25115 64.5322 7.10767 64.4375C5.59823 64.3111 4.42296 63.0329 4.42296 61.5202C4.42296 60.4256 5.02293 59.4256 5.99585 58.9192C6.72837 58.5393 7.1831 57.7802 7.1831 56.9574C7.1831 56.1283 6.72837 55.3755 5.99585 54.9892C5.02293 54.4829 4.42296 53.4892 4.42296 52.3946C4.42296 51.0281 5.38955 49.8255 6.71566 49.5346C7.53066 49.351 8.17504 48.731 8.38303 47.9273C8.59171 47.1173 8.33227 46.2636 7.70692 45.7127C7.06887 45.1435 6.72131 44.3653 6.72131 43.5171C6.72131 42.5934 7.15066 41.7389 7.89657 41.1761C8.45212 40.7588 8.78066 40.1006 8.78066 39.4043C8.78066 38.708 8.45212 38.0506 7.89657 37.6325C7.15137 37.0697 6.72131 36.2152 6.72131 35.2852C6.72131 34.2789 7.23315 33.3552 8.08552 32.8114C8.68549 32.4314 9.07113 31.7803 9.10922 31.0713C9.15363 30.3567 8.85047 29.6667 8.29422 29.2176C6.17135 27.4966 5.00326 25.1619 5.00326 22.6437C5.00326 17.7082 9.55761 13.6908 15.1548 13.6908C20.7583 13.6908 25.3127 17.7091 25.3127 22.6437C25.3127 24.9466 24.3144 27.1366 22.5018 28.813C21.9336 29.3384 21.6805 30.123 21.832 30.8884C21.99 31.6475 22.5335 32.2676 23.2597 32.5274C24.4286 32.9448 25.2118 34.0521 25.2118 35.2865C25.2118 36.2166 24.7825 37.0711 24.0366 37.6338C23.481 38.0512 23.1525 38.7094 23.1525 39.4057C23.1525 40.102 23.481 40.7594 24.0366 41.1775C24.7818 41.7403 25.2118 42.5948 25.2118 43.5184C25.2118 44.3856 24.8325 45.2013 24.1762 45.7585C23.4683 46.3595 23.2096 47.3404 23.5254 48.2132C23.8476 49.0861 24.6753 49.6623 25.6039 49.6623H46.0077C49.8923 49.6623 53.2278 52.4397 53.9294 56.2679C54.0429 56.8753 54.4031 57.407 54.9213 57.7361C56.6902 58.8625 58.598 62.4753 58.598 67.7526C58.5966 72.5108 56.9729 76.0479 55.3619 77.4404ZM58.0403 54.2622H57.9832C57.5665 52.8131 56.9031 51.4848 56.0437 50.3139C56.5936 50.0674 57.2754 49.9156 58.0397 49.9156C60.1245 49.9156 61.5775 51.061 61.5775 52.0857C61.5782 53.1167 60.1251 54.2622 58.0403 54.2622Z" fill="#EEEEEE"/>
<path d="M12.3177 19.6078C12.3177 20.6706 11.4583 21.5315 10.3972 21.5315C9.33612 21.5315 8.47663 20.6707 8.47663 19.6078C8.47663 18.5449 9.33605 17.6841 10.3972 17.6841C11.4582 17.6841 12.3177 18.5449 12.3177 19.6078Z" fill="#EEEEEE"/>
<path d="M21.813 19.6078C21.813 20.6706 20.9472 21.5315 19.8925 21.5315C18.8314 21.5315 17.9719 20.6707 17.9719 19.6078C17.9719 18.5449 18.8314 17.6841 19.8925 17.6841C20.9472 17.6841 21.813 18.5449 21.813 19.6078Z" fill="#EEEEEE"/>
<path d="M12.6588 24.5794C12.6588 25.258 13.0868 25.8314 13.6853 26.056C13.5154 26.7445 12.8985 27.2579 12.1597 27.2579C11.2876 27.2579 10.5804 27.9662 10.5804 28.8398C10.5804 29.7133 11.2876 30.4216 12.1597 30.4216C13.3653 30.4216 14.4645 29.9633 15.3012 29.2176C16.1381 29.964 17.2365 30.4216 18.4427 30.4216C19.3148 30.4216 20.022 29.7133 20.022 28.8398C20.022 27.9662 19.3148 27.2579 18.4427 27.2579C17.7067 27.2579 17.0919 26.7481 16.9199 26.0638C17.5311 25.8455 17.9718 25.2665 17.9718 24.5787C17.9718 23.7051 17.2646 22.9968 16.3925 22.9968L14.2379 22.9975C13.3651 22.9975 12.6588 23.7058 12.6588 24.5794Z" fill="#EEEEEE"/>
</svg>
