<svg width="95" height="94" viewBox="0 0 95 94" fill="none" xmlns="http://www.w3.org/2000/svg">
<path d="M57.9887 26.9412C59.0043 25.5678 59.5752 23.8899 59.5752 22.1682C59.5752 17.7372 55.9646 14.1356 51.5225 14.1356C48.9523 14.1356 46.6427 15.338 45.1576 17.2435C43.6788 15.3382 41.3628 14.1356 38.7991 14.1356C34.3571 14.1356 30.7465 17.7372 30.7465 22.1682C30.7465 23.8898 31.3109 25.5677 32.3329 26.9412C30.8477 28.8528 30.0736 31.043 30.0736 33.3411C30.0736 40.0377 36.8444 45.4818 45.1576 45.4818C53.4774 45.4818 60.248 40.0377 60.248 33.3411C60.248 31.043 59.4675 28.853 57.9887 26.9412ZM45.1575 42.3168C38.5892 42.3168 33.2464 38.2906 33.2464 33.3411C33.2464 31.4231 34.0523 29.5876 35.5814 28.0306C35.8796 27.7269 36.0446 27.3093 36.0319 26.8848C36.0191 26.4545 35.835 26.049 35.5177 25.7579C34.4837 24.8212 33.9185 23.5488 33.9185 22.169C33.9185 19.4851 36.1076 17.3015 38.7983 17.3015C41.1716 17.3015 43.1957 18.9977 43.5959 21.3396C43.729 22.0991 44.3891 22.6565 45.1568 22.6565C45.9309 22.6565 46.591 22.0998 46.7242 21.3396C47.1236 18.9977 49.1421 17.3015 51.5218 17.3015C54.2124 17.3015 56.4015 19.4851 56.4015 22.169C56.4015 23.5488 55.8307 24.8211 54.8023 25.7579C54.485 26.049 54.3009 26.4545 54.2882 26.8848C54.2754 27.3086 54.4404 27.7269 54.7386 28.0306C56.2613 29.5877 57.0737 31.4239 57.0737 33.3411C57.0751 38.2906 51.7314 42.3168 45.1575 42.3168Z" fill="#EEEEEE"/>
<path d="M89.6036 42.2778C92.5796 42.2778 94.9976 39.8595 94.9976 36.8973V33.0612C94.9976 29.7316 93.608 26.4966 91.1837 24.1992C88.7275 21.8636 85.5108 20.6669 82.1154 20.8378C75.579 21.1607 70.4641 26.6549 70.4641 33.3522V39.904C70.4641 44.8606 72.5711 49.6144 76.2518 52.9505L81.9567 58.1219C84.0637 60.0272 84.7741 63.0913 83.721 65.7368C82.7627 68.1487 80.3704 69.8258 77.6542 70.0351C77.9587 67.5031 77.3433 64.9011 75.8077 62.6984C73.8091 59.8373 70.5278 58.1282 67.0313 58.1282H64.512V45.0691C67.6147 40.961 68.9604 35.7769 68.2118 30.6494L67.2918 24.2876C67.3931 24.294 67.5014 24.294 67.6027 24.294C72.5972 24.294 76.6582 20.2432 76.6582 15.2611C76.6582 10.2854 72.5972 6.23459 67.6027 6.23459C65.8002 6.23459 64.0869 6.75384 62.6337 7.71605C59.1053 2.89931 53.4825 0 47.3847 0H42.6317C36.5776 0 30.9741 2.87399 27.4336 7.64045C26.0058 6.7291 24.3246 6.23529 22.5795 6.23529C17.5849 6.23529 13.524 10.2861 13.524 15.2618C13.524 20.2439 17.5849 24.2947 22.5795 24.2947H22.7317L21.8053 30.6502C21.044 35.8661 22.4463 41.1391 25.6638 45.2854V58.1291H23.1445C19.6479 58.1291 16.3673 59.8381 14.368 62.6994C11.8487 66.3136 11.7915 71.0229 14.2349 74.6881L16.9382 78.7581C17.5855 79.7203 17.4906 80.9926 16.7095 81.8531C16.2271 82.3851 15.5416 82.6889 14.8247 82.6889L7.19634 82.6882C3.22386 82.6882 0 85.9103 0 89.8665V91.7845C0 93.006 0.990111 94 2.22104 94H40.5063C41.7308 94 42.7273 93.006 42.7273 91.7845V89.9929H47.4484V91.7845C47.4484 93.006 48.4449 94 49.6695 94H87.9547C89.1856 94 90.1757 93.006 90.1757 91.7845V89.8665C90.1757 85.9103 86.9519 82.6882 82.9794 82.6882H75.3517C74.635 82.6882 73.9494 82.3844 73.467 81.8524C73.1625 81.5168 72.9656 81.112 72.877 80.6938C73.0994 80.7701 73.3339 80.8203 73.5817 80.8203H77.3319C82.2244 80.8203 86.9455 78.763 90.2836 75.1741C93.6661 71.5407 95.322 66.8059 94.9481 61.8493C94.6117 57.3484 92.4983 53.1266 88.9961 49.9552L83.5073 44.9794C82.0731 43.6816 81.2544 41.8334 81.2544 39.9028L81.2537 33.0614C81.2537 32.6375 81.4378 32.232 81.7551 31.9536C81.9456 31.789 82.3451 31.5234 82.9357 31.599C83.6525 31.6873 84.2113 32.3839 84.2113 33.1878V36.8976C84.2113 39.8598 86.6348 42.278 89.6052 42.278L89.6036 42.2778ZM25.6631 82.6576L24.2927 83.6834C22.8585 84.7593 21.9951 86.4747 21.9951 88.2663C21.9951 88.7156 22.0525 89.1522 22.1538 89.5704L4.45494 89.5697C4.60721 88.1963 5.77508 87.1196 7.19651 87.1196H14.8242C16.7981 87.1196 18.6826 86.2839 20.0022 84.8222C22.1467 82.4611 22.4074 78.9607 20.6432 76.3023L17.9335 72.2386C16.5121 70.0994 16.5376 67.3455 18.0156 65.2311C19.1835 63.5603 21.1001 62.5599 23.1433 62.5599H25.6625L25.6631 82.6576ZM38.2846 89.5697H27.7446C27.0278 89.5697 26.4372 88.9876 26.4372 88.2656C26.4372 87.8608 26.634 87.4743 26.9641 87.2278L29.0711 85.6516L35.8609 82.113L38.2852 84.6513L38.2846 89.5697ZM51.6364 78.4923L48.0641 82.2394C48.0258 82.2776 48.0003 82.3214 47.9628 82.3659C47.9118 82.4295 47.8551 82.4923 47.8105 82.5623C47.7723 82.6195 47.7404 82.6887 47.7092 82.7459C47.6774 82.8159 47.6391 82.8788 47.6143 82.9487C47.5825 83.0186 47.5633 83.0879 47.5442 83.1642C47.5251 83.2278 47.506 83.2906 47.4932 83.3606C47.4741 83.4425 47.4741 83.5315 47.4677 83.6135C47.4614 83.6643 47.4486 83.7145 47.4486 83.7654V85.5633H42.7275V83.7654C42.7275 83.7145 42.7147 83.6643 42.7147 83.6135C42.7084 83.5315 42.702 83.4425 42.6893 83.3606C42.6765 83.2906 42.651 83.2278 42.6319 83.1642C42.6128 83.0879 42.5936 83.0186 42.5681 82.9487C42.5363 82.8788 42.498 82.8159 42.4669 82.7459C42.435 82.6887 42.4031 82.6195 42.3656 82.5623C42.321 82.4923 42.2643 82.4294 42.2133 82.3659C42.1815 82.3214 42.1496 82.2776 42.1184 82.2394L38.5397 78.4923V61.5659C38.5397 60.3444 37.5432 59.3504 36.3187 59.3504C35.0942 59.3504 34.0977 60.3444 34.0977 61.5659V78.0365L30.106 80.1127L30.1053 49.4449C33.2909 51.6033 37.0793 52.7937 41.0135 52.7937H49.0031C52.9246 52.7937 56.7002 51.616 59.8795 49.4704V80.0134L56.0783 78.0381V61.5675C56.0783 60.3461 55.0818 59.3521 53.8573 59.3521C52.6327 59.3521 51.6363 60.3461 51.6363 61.5675L51.6364 78.4923ZM62.4306 89.5697H51.8899V84.6513L54.3141 82.113L60.5778 85.3726C60.8002 85.588 61.0793 85.7527 61.3775 85.8537L63.211 87.2271C63.5411 87.4736 63.7379 87.8601 63.7379 88.2649C63.7379 88.9876 63.1537 89.5697 62.4306 89.5697ZM60.3236 43.2018C57.4807 46.4805 53.3559 48.3603 49.0025 48.3603H41.0137C36.6664 48.3603 32.5416 46.4803 29.6926 43.2018C26.8496 39.923 25.5741 35.5803 26.2024 31.2886L27.5792 21.7873C27.6996 20.9897 27.3695 20.1857 26.7222 19.6982C26.3284 19.4072 25.8589 19.2553 25.3829 19.2553C25.072 19.2553 24.7611 19.3189 24.4693 19.4517C23.8666 19.7237 23.2256 19.8628 22.5782 19.8628C20.0336 19.8628 17.9648 17.7993 17.9648 15.2609C17.9648 12.7289 20.0336 10.6654 22.5782 10.6654C23.9806 10.6654 25.2942 11.2984 26.1825 12.3997C26.6457 12.9819 27.3751 13.292 28.1181 13.2228C28.8604 13.1592 29.5205 12.7226 29.876 12.0642C32.4016 7.35487 37.2877 4.43006 42.6314 4.43006H47.3845C52.7784 4.43006 57.6901 7.39864 60.1965 12.1779C60.552 12.8491 61.2249 13.2921 61.9798 13.3556C62.7412 13.4256 63.4778 13.09 63.9345 12.4881C64.8163 11.3295 66.1556 10.6654 67.6024 10.6654C70.1471 10.6654 72.2158 12.729 72.2158 15.261C72.2158 17.7993 70.1471 19.8629 67.6024 19.8629C66.9105 19.8629 66.232 19.7046 65.5973 19.3945C64.8551 19.0335 63.979 19.1161 63.3125 19.5972C62.646 20.0847 62.3096 20.895 62.4243 21.7053L63.8203 31.2885C64.4421 35.5802 63.1665 39.923 60.3236 43.2018ZM72.2411 72.2382L69.5378 76.3019C67.7736 78.954 68.0335 82.461 70.1724 84.8219C71.4925 86.2843 73.3835 87.1193 75.3504 87.1193H82.978C84.3995 87.1193 85.5673 88.1952 85.7196 89.5693H68.0215C68.1228 89.1518 68.1801 88.7145 68.1801 88.2652C68.1801 86.4736 67.3168 84.7582 65.8826 83.6823L64.5121 82.6565V62.5598H67.0314C69.0748 62.5598 70.9976 63.5601 72.1654 65.231C73.6371 67.3454 73.669 70.0993 72.2412 72.2392L72.2411 72.2382ZM83.4986 27.1996C81.8045 26.9841 80.0969 27.5034 78.8213 28.6238C77.5394 29.7443 76.8099 31.3649 76.8099 33.0612V39.904C76.8099 43.0817 78.1612 46.1266 80.516 48.2594L86.0048 53.2351C88.6635 55.6407 90.2627 58.8183 90.5171 62.179C90.7961 65.8951 89.5588 69.4395 87.0269 72.1614C84.5268 74.8453 80.992 76.3896 77.3304 76.3896H74.8112L75.9408 74.687C75.9854 74.6234 76.023 74.5542 76.0612 74.4906H77.0768C81.8298 74.4906 86.1579 71.6295 87.852 67.3694C89.578 63.0148 88.4101 57.9819 84.9455 54.8359L79.2342 49.6645C76.4799 47.1707 74.9062 43.6129 74.9062 39.9039V33.352C74.9062 29.0221 78.1676 25.465 82.3306 25.2623C84.4944 25.1549 86.5502 25.9143 88.1184 27.4078C89.6921 28.8956 90.5554 30.9019 90.5554 33.0602V36.8964C90.5554 37.4156 90.1304 37.8459 89.6035 37.8459C89.0766 37.8459 88.6516 37.4156 88.6516 36.8964V33.1867C88.6516 30.1488 86.4371 27.5796 83.4986 27.1996Z" fill="#EEEEEE"/>
<path d="M53.2021 22.5228C53.2021 23.5797 52.3388 24.4473 51.2728 24.4473C50.2069 24.4473 49.3435 23.5798 49.3435 22.5228C49.3435 21.4596 50.2068 20.592 51.2728 20.592C52.3387 20.592 53.2021 21.4589 53.2021 22.5228Z" fill="#EEEEEE"/>
<path d="M40.8351 22.5228C40.8351 23.5797 39.9718 24.4473 38.9058 24.4473C37.8398 24.4473 36.9765 23.5798 36.9765 22.5228C36.9765 21.4596 37.8398 20.592 38.9058 20.592C39.9718 20.592 40.8351 21.4589 40.8351 22.5228Z" fill="#EEEEEE"/>
<path d="M38.2478 34.3942C38.2478 35.2681 38.9582 35.9767 39.8343 35.9767C40.7103 35.9767 41.4207 35.2681 41.4207 34.3942C41.4207 33.8022 41.9037 33.3211 42.4972 33.3211C43.0907 33.3211 43.5738 33.8029 43.5738 34.3942V37.04C43.5738 37.9139 44.2841 38.6225 45.1602 38.6225C46.0363 38.6225 46.7467 37.9139 46.7467 37.04V34.3942C46.7467 33.8022 47.2297 33.3211 47.8232 33.3211C48.4167 33.3211 48.899 33.8029 48.899 34.3942C48.899 35.2681 49.6094 35.9767 50.4855 35.9767C51.3615 35.9767 52.0719 35.2681 52.0719 34.3942C52.0719 32.0572 50.1653 30.1561 47.8231 30.1561C46.8153 30.1561 45.8896 30.5093 45.16 31.0964C44.4306 30.5093 43.5049 30.1561 42.497 30.1561C40.1541 30.1561 38.2478 32.0572 38.2478 34.3942Z" fill="#EEEEEE"/>
</svg>
