<svg width="84" height="95" viewBox="0 0 84 95" fill="none" xmlns="http://www.w3.org/2000/svg">
<path d="M35.6096 41.8196C33.9663 41.8196 32.4553 42.4211 31.3562 43.514C28.8762 45.981 29.1557 50.2709 31.9798 53.0792C33.4593 54.5495 35.4236 55.3928 37.3709 55.3928C39.0142 55.3928 40.5259 54.7912 41.625 53.6984V53.6984C44.1043 51.2321 43.8254 46.9407 41.0021 44.1332C39.5226 42.6622 37.5569 41.8196 35.6096 41.8196ZM39.3531 51.4656C38.7217 52.094 37.9265 52.2254 37.3716 52.2254C36.2711 52.2254 35.134 51.7229 34.2523 50.8456C32.6662 49.2693 32.3872 46.9813 33.6288 45.7455C34.2602 45.1171 35.0547 44.9856 35.6095 44.9856C36.7101 44.9856 37.8472 45.4882 38.7288 46.3654C40.3149 47.9425 40.5932 50.2298 39.3531 51.4656Z" fill="#EEEEEE"/>
<path d="M55.3497 54.7509C51.3488 54.7509 48.0942 57.5903 48.0942 61.0808C48.0942 64.5713 51.3493 67.4107 55.3497 67.4107C59.3506 67.4107 62.6052 64.5713 62.6052 61.0808C62.6059 57.5903 59.3508 54.7509 55.3497 54.7509ZM55.3497 64.2441C53.1157 64.2441 51.2979 62.8254 51.2979 61.081C51.2979 59.3365 53.1157 57.9178 55.3497 57.9178C57.5837 57.9178 59.4015 59.3365 59.4015 61.081C59.4022 62.8255 57.5844 64.2441 55.3497 64.2441Z" fill="#EEEEEE"/>
<path d="M83.5658 73.0747L63.4595 15.2549C65.414 13.304 66.4073 10.5048 65.9516 7.59097C65.5483 4.99386 64.0294 2.71433 61.7805 1.3338C59.5701 -0.0276247 56.892 -0.363393 54.4248 0.402857C42.7501 4.03831 30.2618 11.7021 21.0096 20.8982C11.7576 30.0945 4.05601 42.5209 0.40364 54.1239C-0.371538 56.5873 -0.0189873 59.2608 1.36474 61.4583C2.76134 63.6688 5.04896 65.1638 7.64412 65.5625C8.11822 65.6388 8.5859 65.6699 9.05358 65.6699C11.4692 65.6699 13.7181 64.7199 15.3652 63.092L47.0046 73.9728V80.1225C47.0046 82.4657 48.9268 84.3721 51.2909 84.3721C53.6551 84.3721 55.5837 82.4657 55.5837 80.1225V77.3862C55.5837 77.2406 55.6609 77.1579 55.7246 77.1141C55.8139 77.0505 55.9105 77.0378 56.0127 77.0696C56.1472 77.1141 56.2373 77.247 56.2373 77.3862V89.1415C56.2373 92.3719 58.8832 95 62.1383 95C65.3934 95 68.0392 92.3719 68.0392 89.1415V81.6741C68.0392 81.5284 68.1222 81.4394 68.1866 81.3955C68.2759 81.3319 68.3725 81.3192 68.4683 81.351C68.6028 81.4019 68.6929 81.5284 68.6929 81.6741V85.8227C68.6929 88.1723 70.6215 90.0788 72.9856 90.0788C75.3497 90.0788 77.2719 88.1725 77.2719 85.8227V83.435C79.1749 83.1437 80.9303 82.1619 82.2054 80.6167C83.9552 78.5017 84.4615 75.6771 83.5648 73.0737L83.5658 73.0747ZM69.258 43.6183C65.4715 46.3546 60.0825 46.0252 56.6928 42.6492C52.8999 38.8809 52.8999 32.7439 56.6928 28.9749C58.442 27.2332 60.7553 26.2513 63.1831 26.1693L69.258 43.6183ZM13.3146 58.1091C12.6417 60.2312 10.5465 61.5225 8.3297 61.1812C7.0225 60.9847 5.87551 60.2312 5.17107 59.1165C4.47886 58.0081 4.29936 56.6714 4.68407 55.4428C8.13726 44.4856 15.4292 32.7434 24.188 24.0285C32.9531 15.3135 44.7629 8.06182 55.7762 4.6352C57.0062 4.24855 58.3005 4.41323 59.409 5.09749C60.5431 5.79447 61.3119 6.95304 61.5172 8.26426C61.8633 10.481 60.5625 12.5776 58.4351 13.2428C48.5809 16.3339 38.4259 22.5848 30.5631 30.4005C22.7013 38.2163 16.4161 48.3185 13.3146 58.1091ZM79.2278 78.2172C78.3246 79.3128 76.966 79.8642 75.595 79.6931C75.0501 79.6231 74.4995 79.7878 74.0826 80.149C73.6664 80.5102 73.429 81.0291 73.429 81.5741V85.8237C73.429 86.0767 73.2302 86.2796 72.9871 86.2796C72.7439 86.2796 72.5387 86.0767 72.5387 85.8237V81.675C72.5387 79.9142 71.4174 78.3436 69.7383 77.7674C68.4697 77.3306 67.0538 77.5271 65.9583 78.2997C64.8564 79.0723 64.1963 80.3326 64.1963 81.6757V89.1431C64.1963 90.2769 63.2738 91.2015 62.1398 91.2015C61.0056 91.2015 60.0832 90.2769 60.0832 89.1431V77.3878C60.0832 75.6334 58.9555 74.0627 57.2771 73.4802C56.0085 73.0498 54.5991 73.2456 53.5036 74.0125C52.4016 74.7915 51.7416 76.0519 51.7416 77.3885V80.1247C51.7416 80.3714 51.5428 80.5743 51.2932 80.5743C51.0501 80.5743 50.8513 80.3714 50.8513 80.1247V72.6256C50.8513 71.8149 50.3321 71.0931 49.5569 70.8267L17.4671 59.786C17.5122 59.6722 17.5565 59.5577 17.5951 59.4312C20.4462 50.4314 26.4825 40.7473 33.7414 33.527C41.0011 26.3072 50.7401 20.303 59.7864 17.4711C59.9015 17.433 60.0045 17.3892 60.1196 17.351L62.1062 23.0638C59.2229 23.3805 56.5126 24.6536 54.4174 26.7438C49.3873 31.7406 49.3873 39.8796 54.4174 44.883C56.9159 47.3719 60.2355 48.6195 63.5479 48.6195C65.9056 48.6195 68.2641 47.9798 70.3335 46.7131L79.9252 74.302C80.3993 75.6768 80.1503 77.1025 79.2278 78.2172Z" fill="#EEEEEE"/>
<path d="M70.5717 70.9973C70.2449 71.3204 69.803 71.5041 69.3353 71.5041C68.8676 71.5041 68.4257 71.3204 68.0989 70.9973C67.4195 70.3194 67.4195 69.2174 68.0989 68.5403C68.7589 67.8815 69.9124 67.8815 70.5725 68.5403C71.2568 69.2174 71.2568 70.3194 70.5717 70.9973Z" fill="#EEEEEE"/>
<path d="M30.167 57.8995C29.8337 58.2289 29.3982 58.4127 28.9306 58.4127C28.4629 58.4127 28.0209 58.2289 27.6877 57.8995C27.0084 57.2216 27.0084 56.1196 27.6877 55.4425C28.3542 54.79 29.5076 54.79 30.1677 55.4425C30.8463 56.1204 30.8463 57.2224 30.167 57.8995Z" fill="#EEEEEE"/>
<path d="M63.3497 39.7856C63.0165 40.115 62.5745 40.2988 62.1068 40.2988C61.6392 40.2988 61.2037 40.115 60.8704 39.7856C60.1911 39.1077 60.1911 38.0121 60.8704 37.3342C61.5305 36.6754 62.6839 36.6754 63.3504 37.3342C64.0283 38.0121 64.0283 39.1077 63.3497 39.7856Z" fill="#EEEEEE"/>
<path d="M43.5199 34.8527C43.1867 35.1821 42.7512 35.3659 42.2835 35.3659C41.8158 35.3659 41.3739 35.1821 41.0406 34.8527C40.3613 34.1748 40.3613 33.0728 41.0406 32.3956C41.7071 31.7368 42.8606 31.7368 43.5206 32.3956C44.1986 33.0728 44.1985 34.1748 43.5199 34.8527Z" fill="#EEEEEE"/>
</svg>
