<svg width="95" height="93" viewBox="0 0 95 93" fill="none" xmlns="http://www.w3.org/2000/svg">
<path d="M94.9922 34.3075C94.9258 29.9312 88.9553 26.9656 80.8821 25.0152C81.0404 25.3527 81.1796 25.7028 81.3062 26.0584C81.7239 27.2577 81.9331 28.4884 81.9331 29.72V29.8197C88.8932 31.7938 90.5648 33.7747 90.5648 34.3807C90.5648 35.0683 88.4428 37.5046 79.0132 39.6976C70.6219 41.6473 59.4313 42.7217 47.4997 42.7217C35.5682 42.7217 24.3767 41.6472 15.9863 39.6976C6.55739 37.5039 4.43544 35.0669 4.43544 34.38C4.43544 33.7803 6.09505 31.8 13.0041 29.8379C12.985 28.5695 13.1943 27.2948 13.6247 26.0578C13.7449 25.7077 13.8841 25.364 14.0424 25.0334C6.00936 26.9838 0.0785077 29.9472 0.00848182 34.3034C0.00706827 34.3306 0 34.355 0 34.3829V80.2882C0 90.3433 31.0701 93 47.5 93C63.9286 93 95 90.3433 95 80.2882V34.3829C95 34.3571 94.9936 34.3333 94.9922 34.3075ZM4.43443 48.6467C6.45939 49.8803 9.21247 50.9549 12.5021 51.8669V76.3618C8.36149 75.166 5.59718 73.8418 4.43443 72.604V48.6467ZM15.6686 52.6596C19.6861 53.5675 24.2917 54.2704 29.2098 54.7669V79.3851C23.9617 78.8328 19.4091 78.0665 15.6686 77.1885V52.6596ZM32.3771 55.0577C36.7594 55.4133 41.3339 55.6079 45.9183 55.6455V80.2851C41.0525 80.2461 36.5247 80.0306 32.3771 79.6819V55.0577ZM49.0842 55.6455C53.6552 55.6086 58.2163 55.414 62.5879 55.0612V79.6865C58.451 80.0331 53.9351 80.2478 49.0842 80.2862V55.6455ZM65.7545 54.7704C70.6719 54.2747 75.2768 53.5732 79.2957 52.6674V77.1963C75.5531 78.0728 71.0012 78.8378 65.7545 79.3886V54.7704ZM82.463 51.8766C85.7689 50.9618 88.5353 49.8845 90.5681 48.6467V72.6044C89.4018 73.8462 86.6247 75.1745 82.463 76.3732V51.8766ZM47.5007 47.0938C60.1253 47.0938 81.3936 45.5249 90.5675 40.2345V44.8387C87.283 48.3372 71.21 52.53 47.5007 52.53C23.7914 52.53 7.71804 48.3372 4.43388 44.838V40.2345C13.6076 45.5249 34.8762 47.0938 47.5007 47.0938ZM79.0124 85.6018C70.621 87.5521 59.4305 88.6266 47.5007 88.6266C35.571 88.6266 24.3795 87.5528 15.9891 85.6018C6.55655 83.4095 4.43406 80.9703 4.43406 80.2883V76.4105C12.016 81.0273 29.837 83.4177 47.5009 83.4177C65.1648 83.4177 82.9861 81.0266 90.5677 76.4105V80.2876C90.5677 80.9702 88.4449 83.4093 79.0124 85.6018Z" fill="#EEEEEE"/>
<path d="M17.7267 10.4767L34.6819 18.6121L29.0641 21.3072C28.5728 21.0395 28.059 20.8045 27.5175 20.6197C25.0543 19.7808 22.4114 19.9377 20.0676 21.0611C18.3819 21.8699 17.0475 23.1041 16.1124 24.5629C16.1095 24.5636 16.1053 24.5643 16.1025 24.565C16.0692 24.6166 16.0403 24.671 16.0077 24.724C15.9484 24.8216 15.889 24.9185 15.8332 25.0175C15.7144 25.2274 15.6013 25.4401 15.4988 25.6576C15.472 25.7148 15.4479 25.772 15.4225 25.8292C15.3306 26.0349 15.2465 26.2427 15.1695 26.454C15.1405 26.5341 15.1122 26.6136 15.0853 26.6945C15.014 26.9079 14.9489 27.1241 14.8931 27.3416C14.8804 27.3904 14.8648 27.4385 14.8535 27.4874C14.7934 27.7363 14.7468 27.988 14.7065 28.2411C14.6895 28.3478 14.6768 28.4552 14.6634 28.5626C14.6457 28.7111 14.6316 28.8611 14.6203 29.011C14.4959 30.6482 14.7864 32.3364 15.5653 33.9164C17.2503 37.3352 20.7315 39.3273 24.3489 39.3273C25.7781 39.3273 27.2285 39.0164 28.5975 38.3595C30.9391 37.2354 32.6977 35.2795 33.5473 32.8516C33.7346 32.3168 33.8646 31.7736 33.9537 31.2262L44.6995 26.071H44.7087L47.464 24.7462L50.2127 26.0648H50.2155L60.9789 31.229C61.4687 34.2183 63.3679 36.9384 66.3323 38.3603C67.6817 39.0074 69.1314 39.3344 70.5887 39.3344C71.661 39.3344 72.7382 39.1573 73.7815 38.8016C76.2433 37.9628 78.2266 36.2272 79.3646 33.9178C80.07 32.487 80.3972 30.941 80.3435 29.3944L80.3457 29.3951C80.3457 29.3881 80.3442 29.3812 80.3442 29.3742C80.3428 29.3323 80.3372 29.2905 80.3351 29.2487C80.323 29.0032 80.3011 28.7585 80.2693 28.513C80.2594 28.4356 80.2467 28.3582 80.2347 28.2808C80.2008 28.0563 80.1576 27.8338 80.1068 27.6114C80.0919 27.5479 80.0792 27.4838 80.0629 27.4203C79.9915 27.1351 79.911 26.8506 79.8127 26.5703C79.8021 26.5404 79.7866 26.5132 79.7767 26.4832C79.6643 26.1736 79.5371 25.8716 79.3964 25.5781C79.3632 25.509 79.325 25.4442 79.2897 25.3766C79.1561 25.1144 79.0126 24.8585 78.8557 24.6109C78.8423 24.59 78.8324 24.5663 78.8182 24.5454C78.8154 24.5447 78.814 24.5447 78.8112 24.544C77.8541 23.0573 76.5055 21.8496 74.86 21.0595C72.5177 19.9354 69.8714 19.7785 67.4109 20.6181C66.8694 20.8029 66.3549 21.0379 65.8636 21.3056L60.2451 18.6098L77.2002 10.4744C79.9723 9.14469 81.1309 5.83802 79.7829 3.10255C78.4343 0.3678 75.0819 -0.775192 72.3096 0.555234L47.464 12.4784L22.6166 0.557376C19.8438 -0.771675 16.4927 0.370496 15.1433 3.1047C14.4902 4.42957 14.3984 5.92603 14.8868 7.31911C15.3759 8.71093 16.3845 9.83226 17.7267 10.4767ZM29.3574 31.423C28.8937 32.7471 27.9345 33.8141 26.6573 34.4269C24.0209 35.6904 20.833 34.6047 19.5503 32.0038C18.2681 29.403 19.3701 26.2575 22.0065 24.9933C22.7415 24.6404 23.5318 24.4619 24.3269 24.4619C24.9121 24.4619 25.4988 24.5581 26.0678 24.7527C27.41 25.2101 28.4916 26.1563 29.1127 27.4171C29.7355 28.6757 29.821 30.0982 29.3574 31.423ZM62.3329 24.4758L61.3207 26.5293L52.5307 22.3121L55.1763 21.0423L62.3329 24.4758ZM75.3765 32.0038C74.7559 33.2639 73.6745 34.2093 72.3316 34.6675C70.99 35.1257 69.5473 35.0406 68.2702 34.427C65.6339 33.1621 64.5319 30.0165 65.8134 27.4164C66.4339 26.1564 67.5154 25.2102 68.8583 24.7527C69.4273 24.5581 70.014 24.4619 70.5992 24.4619C71.3937 24.4619 72.1846 24.6397 72.9204 24.9933C74.1976 25.6062 75.1559 26.6723 75.6204 27.9972C76.0841 29.3207 75.9978 30.7439 75.3765 32.0038ZM74.2498 4.49027C74.8238 4.21483 75.5172 4.45122 75.7964 5.01672C76.0748 5.58294 75.8359 6.26768 75.2613 6.54312L33.6058 26.529L32.5937 24.4754L74.2498 4.49027ZM19.132 5.01742C19.3314 4.6116 19.7455 4.3752 20.1746 4.3752C20.3442 4.3752 20.5167 4.41216 20.6786 4.49025L42.3956 14.91L39.75 16.1798L19.6651 6.54316C19.3873 6.40928 19.1774 6.17777 19.077 5.88908C18.9759 5.6011 18.995 5.29219 19.1307 5.01746L19.132 5.01742Z" fill="#EEEEEE"/>
</svg>
