<svg width="77" height="95" viewBox="0 0 77 95" fill="none" xmlns="http://www.w3.org/2000/svg">
<path d="M70.2906 35.0295L73.3497 31.9816C75.2254 30.112 75.2254 27.0696 73.349 25.1995L69.0167 20.8829C68.1079 19.9774 66.8991 19.4784 65.6129 19.4784C64.3267 19.4784 63.1179 19.9774 62.2098 20.8829L58.9315 24.1493C54.9375 21.6471 50.4532 19.8566 45.6553 18.954L45.6546 13.6675H50.6568C51.8848 13.6675 52.8808 12.6751 52.8808 11.4515V7.32565C52.8815 3.28608 49.5834 0 45.5297 0H31.4725C27.4189 0 24.1201 3.28608 24.1201 7.32492V11.4508C24.1201 12.6751 25.1161 13.6667 26.3441 13.6667H31.3463V18.9532C13.5256 22.305 0 37.9242 0 56.64C0 77.7915 17.271 95 38.5 95C59.729 95 77 77.7919 77 56.64C77 48.63 74.5199 41.1884 70.2896 35.0308L70.2906 35.0295ZM65.3544 24.0163C65.5311 23.8396 65.6942 23.8417 65.8709 24.0163L70.2027 28.3323C70.346 28.4744 70.346 28.7055 70.2034 28.8469L67.5424 31.4982C66.0392 29.7771 64.3877 28.1888 62.6035 26.7575L65.3544 24.0163ZM28.5689 7.32492C28.5689 5.73029 29.8714 4.43187 31.4725 4.43187H45.5296C47.1308 4.43187 48.4332 5.72964 48.4332 7.32492V9.23415L28.5687 9.23485L28.5689 7.32492ZM35.795 18.2788V13.6675H41.2073V18.2796L35.795 18.2788ZM38.5007 90.5672C19.7238 90.5672 4.44838 75.3468 4.44838 56.6388C4.44838 37.9302 19.7243 22.7103 38.5007 22.7103C49.477 22.7103 59.2499 27.9169 65.4828 35.9763C65.5715 36.1176 65.6722 36.2526 65.795 36.3749L65.7971 36.377C70.0387 42.0354 72.5536 49.05 72.5536 56.64C72.5536 75.3468 57.2771 90.5672 38.5007 90.5672Z" fill="#EEEEEE"/>
<path d="M38.5012 27.4838C22.3668 27.4838 9.23986 40.5625 9.23986 56.6388C9.23986 72.7145 22.3662 85.7937 38.5012 85.7937C54.6362 85.7937 67.7626 72.7151 67.7626 56.6388C67.7626 40.5625 54.6355 27.4838 38.5012 27.4838ZM40.0896 81.3061V76.8212C40.0896 75.9469 39.3781 75.2386 38.5012 75.2386C37.6244 75.2386 36.9128 75.9476 36.9128 76.8212V81.3061C24.4951 80.5194 14.5346 70.5954 13.7445 58.2221H18.2458C19.1234 58.2221 19.8342 57.5131 19.8342 56.6395C19.8342 55.7658 19.1227 55.0569 18.2458 55.0569H13.7445C14.5341 42.6843 24.4944 32.76 36.9128 31.9729V36.4577C36.9128 37.3321 37.6244 38.0404 38.5012 38.0404C39.3781 38.0404 40.0896 37.3314 40.0896 36.4577V31.9729C52.5074 32.7596 62.4697 42.6836 63.2579 55.0569H58.7566C57.8791 55.0569 57.1682 55.7658 57.1682 56.6395C57.1682 57.5131 57.8798 58.2221 58.7566 58.2221H63.2579C62.469 70.594 52.5081 80.519 40.0896 81.3061Z" fill="#EEEEEE"/>
<path d="M51.5137 40.6933L40.4935 52.2516C39.8855 51.9759 39.2123 51.819 38.5014 51.819C35.8339 51.819 33.6638 53.9812 33.6638 56.639C33.6638 57.4342 33.8617 58.1842 34.2051 58.8465L30.5409 62.6895C29.9365 63.3236 29.9627 64.3245 30.5991 64.9273C30.9062 65.2186 31.2993 65.3627 31.693 65.3627C32.113 65.3627 32.5329 65.1973 32.8451 64.8701L36.5093 61.027C37.1173 61.3027 37.7905 61.4596 38.5014 61.4596C41.1695 61.4596 43.339 59.2974 43.339 56.6396C43.339 55.8437 43.1411 55.0944 42.797 54.4322L53.8172 42.8746C54.4217 42.2406 54.3954 41.2397 53.7591 40.6368C53.1241 40.0345 52.1181 40.0586 51.5137 40.6933ZM38.5009 58.2938C37.5857 58.2938 36.8408 57.5516 36.8408 56.6391C36.8408 55.7258 37.5857 54.9843 38.5009 54.9843C39.4167 54.9843 40.1616 55.7265 40.1616 56.6391C40.1616 57.5516 39.4167 58.2938 38.5009 58.2938Z" fill="#EEEEEE"/>
</svg>
