<svg width="94" height="93" viewBox="0 0 94 93" fill="none" xmlns="http://www.w3.org/2000/svg">
<path d="M93.3529 22.9323L70.82 0.640677C70.2555 0.0821983 69.4309 -0.131848 68.662 0.0808062C67.8938 0.293459 67.3004 0.899345 67.1108 1.6663L65.313 8.92658C62.8773 18.7637 57.7627 27.7484 50.5233 34.9112L46.4116 38.9788L44.0133 36.6062C43.3973 35.9961 42.3965 35.9968 41.7813 36.6062L40.8115 37.5655L39.5535 36.321L40.5226 35.3623C41.1392 34.7522 41.1392 33.7629 40.5226 33.1535C39.9059 32.5434 38.9058 32.5441 38.2898 33.1535L34.1183 37.2796C33.5016 37.8897 33.5016 38.8791 34.1183 39.4885C34.4263 39.7931 34.8308 39.9458 35.2347 39.9458C35.6385 39.9458 36.043 39.7931 36.351 39.4885L37.3201 38.5298L38.5781 39.7743L37.6091 40.733C37.3131 41.0259 37.1467 41.4233 37.1467 41.8374C37.1467 42.2516 37.3131 42.649 37.6091 42.9418L40.0074 45.3145L39.0221 46.2899L36.6238 43.9173C36.0078 43.3072 35.0071 43.3072 34.3918 43.9173L33.4227 44.8759L32.1647 43.6314L33.1338 42.6727C33.7497 42.0633 33.7497 41.074 33.1338 40.4639C32.5171 39.8545 31.5177 39.8545 30.9011 40.4639L26.7302 44.5908C26.1143 45.2001 26.1143 46.1895 26.7302 46.7996C27.0382 47.1042 27.4428 47.2563 27.8466 47.2563C28.2504 47.2563 28.655 47.1043 28.963 46.7989L29.932 45.8402L31.19 47.0847L30.221 48.0434C29.6043 48.6535 29.6043 49.6422 30.221 50.2515L32.6193 52.6242L31.6341 53.5996L29.2357 51.2269C28.6197 50.6169 27.619 50.6169 27.0037 51.2269L26.0347 52.1856L24.7766 50.9411L25.7457 49.9824C26.3624 49.3723 26.3624 48.3837 25.7457 47.7743C25.1297 47.1642 24.129 47.1642 23.5137 47.7743L19.3429 51.9005C18.7262 52.5105 18.7262 53.4992 19.3429 54.1086C19.6509 54.4132 20.0554 54.5659 20.4593 54.5659C20.8631 54.5659 21.2676 54.4132 21.5756 54.1086L22.5447 53.1499L23.8027 54.3944L22.8336 55.3531C22.217 55.9632 22.217 56.9519 22.8336 57.5612L25.232 59.9339L8.03691 76.9456L3.95271 77.8639C3.54606 77.9552 3.17394 78.1588 2.87935 78.4495L1.33308 79.9793C-0.44436 81.7384 -0.44436 84.6006 1.33308 86.3603L6.70838 91.6781C7.56961 92.5301 8.71485 93 9.93342 93C11.1513 93 12.2978 92.5301 13.1585 91.6781L14.7047 90.1483C14.9993 89.8569 15.2051 89.4888 15.2967 89.0872L16.1826 85.2294L23.5862 77.9051C24.4115 79.5575 25.5074 81.0733 26.838 82.389C30.1877 85.7035 34.5891 87.3603 38.9897 87.3603C42.675 87.3603 46.3574 86.1938 49.4253 83.8699L52.2718 86.6859C52.5798 86.9906 52.9843 87.1433 53.3882 87.1433C53.792 87.1433 54.1958 86.9906 54.5045 86.6859L58.6761 82.5598C58.9721 82.2669 59.1384 81.8702 59.1384 81.4554C59.1384 81.0405 58.9714 80.6438 58.6761 80.3509L55.938 77.6422L56.9232 76.6675L59.6606 79.3755C59.9686 79.6802 60.3731 79.8329 60.777 79.8329C61.1808 79.8329 61.5846 79.6802 61.8933 79.3755L66.0648 75.2494C66.3608 74.9565 66.5272 74.5598 66.5272 74.1449C66.5272 73.7301 66.3601 73.3334 66.0648 73.0405L63.3268 70.3318L64.3127 69.3563L67.0508 72.0651C67.3588 72.3698 67.7633 72.5225 68.1672 72.5225C68.571 72.5225 68.9748 72.3698 69.2835 72.0651L73.4543 67.939C74.071 67.3289 74.071 66.3402 73.4543 65.7308L70.6085 62.9155C72.8948 59.9676 74.1367 56.3762 74.1367 52.5902C74.1374 48.0449 72.3522 43.7751 69.1103 40.568C67.903 39.3736 66.5463 38.3801 65.0826 37.6027C71.0132 33.2765 77.7671 30.1292 84.9777 28.3812L92.3165 26.6019C93.0918 26.4136 93.7042 25.8272 93.9191 25.0673C94.1327 24.308 93.9163 23.4915 93.3518 22.933L93.3529 22.9323ZM65.9829 61.5202L48.0148 79.2968C43.0377 84.2192 34.9391 84.2192 29.9618 79.2968C28.6086 77.9581 27.5882 76.3385 26.9587 74.5661L29.2569 72.2924C29.6339 74.1819 30.5656 75.9179 31.9702 77.3084C33.8428 79.1609 36.3348 80.181 38.9877 80.181C41.6412 80.181 44.1339 79.161 46.0052 77.3084L63.9749 59.5318C67.8433 55.7034 67.8433 49.4742 63.9741 45.6465C60.1036 41.8188 53.8078 41.8188 49.9393 45.6465L36.624 58.82L36.6219 58.8214L14.2798 80.9256L12.2712 78.9385L47.9297 43.6616C52.9075 38.7378 61.0047 38.7378 65.9827 43.6616C68.3895 46.0427 69.7138 49.2136 69.7138 52.591C69.7145 55.9677 68.3897 59.1386 65.9829 61.5202ZM62.1046 54.5046L55.0223 47.4982C56.9815 46.7737 59.2763 47.1844 60.8487 48.7392C62.4218 50.2954 62.837 52.5657 62.1046 54.5046ZM52.4394 49.3591L60.2243 57.0606L58.2854 58.9787L50.4999 51.2772L52.4394 49.3591ZM56.0527 61.1869L55.0668 62.1624L47.2825 54.4609L48.2684 53.4854L56.0527 61.1869ZM52.834 64.3705L50.8952 66.2886L43.1109 58.5871L45.0497 56.669L52.834 64.3705ZM48.6632 68.4967L47.6779 69.4714L39.8936 61.7704L40.8789 60.7957L48.6632 68.4967ZM33.8412 68.4527L40.9235 75.4592C40.3131 75.6851 39.6612 75.8085 38.9888 75.8085C37.5165 75.8085 36.1338 75.2437 35.0964 74.2174C34.059 73.1911 33.4881 71.8239 33.4881 70.3674C33.4874 69.7022 33.6122 69.0573 33.8412 68.4527ZM35.7223 65.8975L37.6611 63.9794L45.4454 71.6804L43.5066 73.5984L35.7223 65.8975ZM40.9594 41.837L42.8982 39.9189L44.1802 41.1872L42.2414 43.1052L40.9594 41.837ZM33.5698 49.1467L35.5087 47.2286L36.7906 48.4969L34.8518 50.4149L33.5698 49.1467ZM26.1803 56.4564L28.1191 54.5383L29.4011 55.8066L27.4623 57.7247L26.1803 56.4564ZM11.1263 87.5012L10.0304 88.5854C10.01 88.6063 9.85208 88.6063 9.83234 88.5854L4.45704 83.2677C4.40207 83.2133 4.40207 83.1247 4.45704 83.071L5.55296 81.9875L8.44674 81.3363L11.7831 84.637L11.1263 87.5012ZM55.326 81.4542L53.3872 83.3722L51.7662 81.7686L53.705 79.8505L55.326 81.4542ZM62.7155 74.1444L60.7767 76.0625L59.155 74.4582L61.0938 72.5401L62.7155 74.1444ZM68.1662 68.7521L66.5445 67.1477L68.4834 65.2297L70.105 66.834L68.1662 68.7521ZM83.9257 24.133C75.176 26.254 67.0444 30.277 60.1046 35.8806C59.0764 35.6937 58.0249 35.5947 56.9572 35.5947C56.6062 35.5947 56.2566 35.6086 55.9099 35.6289C62.5256 28.3275 67.2413 19.5222 69.6071 9.96729L70.4712 6.47905L87.4526 23.2787L83.9257 24.133Z" fill="#EEEEEE"/>
</svg>
